<svg width="20" height="20" viewBox="0 0 20 20" fill="none" xmlns="http://www.w3.org/2000/svg">
<g clip-path="url(#clip0_3141_2277)">
<path d="M3.54166 0.00195312H16.4583C18.4166 0.00195312 20 1.62555 20 3.63368V16.3661C20 18.3742 18.4166 19.9978 16.4583 19.9978H3.54166C1.58333 19.9978 0 18.3742 0 16.3661V3.63368C0 1.62555 1.58333 0.00195312 3.54166 0.00195312Z" fill="#001E36"/>
<path d="M4.5 14.0247V5.23169C4.5 5.17188 4.525 5.1377 4.58333 5.1377C4.725 5.1377 4.85833 5.1377 5.05 5.12915C5.25 5.12061 5.45834 5.12061 5.68334 5.11206C5.90834 5.10352 6.15001 5.10352 6.40834 5.09497C6.66667 5.08643 6.91667 5.08643 7.16668 5.08643C7.85001 5.08643 8.41668 5.17188 8.88335 5.35133C9.30002 5.4966 9.68335 5.73586 10 6.05204C10.2667 6.32548 10.475 6.65875 10.6084 7.02619C10.7334 7.38509 10.8 7.75253 10.8 8.13707C10.8 8.87196 10.6334 9.47867 10.3 9.9572C9.96668 10.4357 9.50002 10.7946 8.95835 10.9997C8.39168 11.2133 7.76668 11.2903 7.08334 11.2903C6.88334 11.2903 6.75001 11.2903 6.66667 11.2817C6.58334 11.2732 6.46667 11.2732 6.30834 11.2732V14.0162C6.31667 14.076 6.27501 14.1273 6.21667 14.1358H4.6C4.53333 14.1358 4.5 14.1016 4.5 14.0247ZM6.31667 6.78692V9.65812C6.43334 9.66666 6.54167 9.67521 6.64167 9.67521H7.08334C7.40834 9.67521 7.73334 9.62394 8.04168 9.5214C8.30835 9.44449 8.54168 9.28213 8.72501 9.0685C8.90001 8.85487 8.98335 8.56433 8.98335 8.18834C8.99168 7.92344 8.92501 7.65854 8.79168 7.42782C8.65001 7.20564 8.45001 7.03474 8.20835 6.94074C7.90001 6.81256 7.56668 6.76129 7.22501 6.76983C7.00834 6.76983 6.81667 6.76983 6.65834 6.77838C6.49167 6.76983 6.37501 6.77838 6.31667 6.78692ZM16 9.13686C15.75 9.00014 15.4834 8.90614 15.2 8.84632C14.8917 8.77796 14.5834 8.73523 14.2667 8.73523C14.1 8.72669 13.925 8.75233 13.7667 8.79505C13.6584 8.82069 13.5667 8.8805 13.5084 8.96596C13.4667 9.03432 13.4417 9.11977 13.4417 9.19668C13.4417 9.27358 13.475 9.35049 13.525 9.41885C13.6 9.51285 13.7 9.58976 13.8084 9.64957C14 9.75212 14.2 9.84611 14.4 9.93157C14.85 10.0854 15.2834 10.299 15.6834 10.5554C15.9584 10.7348 16.1834 10.9741 16.3417 11.2646C16.475 11.5381 16.5417 11.8372 16.5334 12.1448C16.5417 12.5464 16.425 12.948 16.2084 13.2813C15.975 13.6231 15.65 13.888 15.275 14.0418C14.8667 14.2213 14.3667 14.3153 13.7667 14.3153C13.3834 14.3153 13.0084 14.2811 12.6334 14.2042C12.3417 14.1529 12.05 14.0589 11.7834 13.9307C11.725 13.8965 11.6834 13.8367 11.6917 13.7684V12.2815C11.6917 12.2559 11.7 12.2217 11.725 12.2046C11.75 12.1875 11.775 12.196 11.8 12.2131C12.125 12.4097 12.4667 12.5464 12.8334 12.6319C13.15 12.7173 13.4834 12.76 13.8167 12.76C14.1334 12.76 14.3584 12.7173 14.5084 12.6404C14.6417 12.5806 14.7334 12.4353 14.7334 12.2815C14.7334 12.1619 14.6667 12.0508 14.5334 11.9397C14.4 11.8286 14.125 11.7004 13.7167 11.5381C13.2917 11.3843 12.9 11.1792 12.5334 10.9228C12.275 10.7348 12.0584 10.487 11.9 10.1965C11.7667 9.92302 11.7 9.62394 11.7084 9.32486C11.7084 8.95741 11.8084 8.60706 11.9917 8.29088C12.2 7.94907 12.5084 7.67563 12.8667 7.50472C13.2584 7.29964 13.75 7.20564 14.3417 7.20564C14.6834 7.20564 15.0334 7.23128 15.375 7.28255C15.625 7.31673 15.8667 7.38509 16.0917 7.47909C16.125 7.48763 16.1584 7.52181 16.175 7.55599C16.1834 7.59018 16.1917 7.62436 16.1917 7.65854V9.05141C16.1917 9.08559 16.175 9.11977 16.15 9.13686C16.075 9.15395 16.0334 9.15395 16 9.13686Z" fill="#31A8FF"/>
</g>
<defs>
<clipPath id="clip0_3141_2277">
<rect width="20" height="20" fill="white"/>
</clipPath>
</defs>
</svg>
