<svg width="20" height="20" viewBox="0 0 20 20" fill="none" xmlns="http://www.w3.org/2000/svg">
<path d="M5.92482 3.69873C6.52408 3.69873 7.07042 3.75144 7.56393 3.85706C8.05745 3.96258 8.48043 4.13568 8.83289 4.37578C9.18534 4.61617 9.45856 4.93572 9.65244 5.33444C9.84633 5.73316 9.94327 6.22552 9.94327 6.81172C9.94327 7.44494 9.79931 7.97254 9.51148 8.39452C9.22346 8.8166 8.79767 9.16241 8.23372 9.43215C9.00916 9.65497 9.58782 10.045 9.96978 10.6017C10.3513 11.1587 10.5427 11.8301 10.5427 12.6154C10.5427 13.2485 10.4194 13.7968 10.1725 14.26C9.92586 14.7233 9.59372 15.1014 9.17684 15.3941C8.75965 15.6874 8.28375 15.9041 7.74921 16.0451C7.21133 16.186 6.65742 16.2569 6.10129 16.2559H0.00292969V3.69873H5.92482ZM5.57236 8.78156C6.06588 8.78156 6.47115 8.66436 6.78849 8.42976C7.10573 8.19536 7.2643 7.81421 7.2643 7.28661C7.2643 6.99361 7.21148 6.75312 7.10573 6.56554C6.99999 6.37806 6.85902 6.23121 6.68275 6.12589C6.50647 6.02027 6.30378 5.94729 6.07468 5.90596C5.83904 5.86444 5.60016 5.84386 5.36087 5.84447H2.77004V8.78166H5.57236V8.78156ZM5.73093 14.1103C6.00105 14.1103 6.25966 14.0838 6.50637 14.0311C6.75308 13.9783 6.97037 13.8903 7.15856 13.7672C7.34634 13.6443 7.4962 13.477 7.60795 13.2659C7.7195 13.055 7.77532 12.7853 7.77532 12.4569C7.77532 11.8123 7.59304 11.3521 7.22899 11.0764C6.86463 10.8009 6.38292 10.663 5.78375 10.663H2.77004V14.1101L5.73093 14.1103ZM14.025 13.8465C14.4009 14.2103 14.9415 14.3917 15.6465 14.3917C16.1515 14.3917 16.5864 14.2659 16.9505 14.0136C17.3148 13.7619 17.5381 13.4949 17.6203 13.2134H19.8234C19.471 14.3037 18.9303 15.0836 18.202 15.5524C17.4733 16.0215 16.592 16.2559 15.5581 16.2559C14.8414 16.2559 14.195 16.1416 13.6194 15.9129C13.0435 15.6844 12.5558 15.3589 12.1566 14.9369C11.7571 14.5149 11.4486 14.011 11.2312 13.4245C11.0137 12.8384 10.9053 12.1934 10.9053 11.4899C10.9053 10.8101 11.0166 10.177 11.2401 9.59068C11.4631 9.00458 11.7803 8.49744 12.192 8.06927C12.6029 7.6415 13.0936 7.30438 13.6636 7.0581C14.2333 6.81182 14.8649 6.68883 15.5582 6.68883C16.3338 6.68883 17.0093 6.83827 17.5852 7.13726C18.1608 7.43615 18.6338 7.83817 19.004 8.34191C19.3741 8.84615 19.6412 9.42077 19.8061 10.0654C19.9706 10.7104 20.0291 11.3844 19.9824 12.0879H13.4083C13.4434 12.8967 13.6487 13.4832 14.025 13.8465ZM16.8537 9.06288C16.5542 8.73474 16.0987 8.57042 15.4879 8.57042C15.0883 8.57042 14.7565 8.638 14.4922 8.77267C14.2277 8.90774 14.0161 9.07446 13.8575 9.27392C13.699 9.47338 13.5872 9.68452 13.5227 9.90704C13.458 10.1299 13.4198 10.3292 13.4081 10.505H17.4794C17.3619 9.8718 17.1534 9.39122 16.8537 9.06288ZM12.9807 4.33634H18.0675V5.74374H12.9807V4.33634Z" fill="#1769FF"/>
</svg>
