<svg width="200" height="64" viewBox="0 0 200 64" fill="none" xmlns="http://www.w3.org/2000/svg">
<g opacity="0.4">
<g clip-path="url(#clip0_1833_15051)">
<path d="M82.5052 29.7864C83.5349 29.7864 84.3696 28.9566 84.3696 27.9333C84.3696 26.9098 83.5349 26.0802 82.5052 26.0802C81.4756 26.0802 80.6409 26.9098 80.6409 27.9333C80.6409 28.9566 81.4756 29.7864 82.5052 29.7864ZM144.033 36.1176C143.75 35.9195 143.531 35.8866 143.349 36.2715C140.218 43.0104 134.941 39.6476 135.465 39.9435C136.636 39.4115 139.714 36.9584 139.249 33.5711C138.966 31.501 137.178 30.5827 135.28 30.9115C131.967 31.4854 130.749 35.0361 131.369 38.1797C131.478 38.7196 131.672 39.1648 131.865 39.601C128.122 42.6261 126.635 36.8929 126.466 36.2077C126.46 36.1711 129.357 33.7713 130.163 28.0529C131.007 22.0596 129.083 20.9684 127.116 21.0024C123.475 21.0655 122.491 28.6242 123.813 34.9239C123.702 34.9525 123.187 35.2361 122.359 35.2678C121.764 33.4054 119.218 31.7728 118.552 32.4019C116.885 33.9756 118.957 37.0523 120.414 37.2936C119.539 42.6523 114.063 41.3252 115.082 34.6115C116.865 31.3211 118.221 26.4286 117.979 23.475C117.894 22.4293 117.116 21.0283 115.356 21.0978C111.972 21.2308 111.604 28.7916 112 34.1579C111.981 34.0257 111.792 34.8099 110.405 35.1998C110.077 33.3903 107.145 31.5741 106.455 32.4473C105.163 34.0816 107.402 36.9955 108.463 37.1988C107.587 42.5574 102.112 41.2302 103.131 34.5165C104.914 31.2263 106.27 26.3338 106.028 23.3802C105.943 22.3343 105.165 20.9333 103.405 21.0026C100.02 21.1358 99.6525 28.6967 100.049 34.0629C100.029 33.9286 99.8366 34.7386 98.3931 35.1221C98.3448 32.7745 95.4021 31.6981 94.6952 32.4471C93.4354 33.7823 94.9838 36.5218 96.4162 37.1988C95.5406 42.5574 90.065 41.2302 91.0843 34.5165C92.8675 31.2263 94.2236 26.3338 93.9815 23.3802C93.8959 22.3343 93.1179 20.9333 91.3581 21.0026C87.9738 21.1358 87.7015 29.0768 88.0982 34.4428C86.9835 39.1887 83.2452 45.1155 83.7309 33.243C83.7788 32.4101 83.8312 32.0939 83.4133 31.7821C83.1002 31.5397 82.3882 31.6564 81.999 31.666C81.526 31.6848 81.4074 31.9598 81.3028 32.3755C81.0593 33.449 81.0155 34.4896 80.9808 35.9095C80.9579 36.5737 80.9043 36.8836 80.6469 37.7893C80.3898 38.6948 78.9231 40.3498 78.1201 40.0731C77.0061 39.6925 77.3716 36.5674 77.5803 34.4203C77.7543 32.7235 77.1973 31.9616 75.7701 31.6845C74.9346 31.5114 74.427 31.538 73.5568 31.2654C72.734 31.0077 72.5479 29.4611 70.7928 29.9765C69.8329 30.2587 70.45 32.2797 70.2193 33.7776C69.0851 41.146 66.7251 41.3484 65.6302 37.769C70.5613 25.7684 67.0566 21.0373 65.0052 21.0373C62.8685 21.0373 60.4261 22.4998 61.4603 31.8572C60.9574 31.7114 60.8028 31.6328 60.2523 31.6328C57.1388 31.6328 55.0176 34.1338 55.0176 37.219C55.0176 40.3043 57.139 42.8055 60.2525 42.8055C62.0904 42.8055 63.3809 41.9749 64.3582 40.69C64.9959 41.5974 65.7723 42.8194 67.1923 42.7644C71.4247 42.6007 72.6556 33.9737 72.8009 33.4925C73.2534 33.5618 73.6814 33.6929 74.0993 33.7622C74.7954 33.8661 74.846 34.1399 74.8302 34.8357C74.6457 40.7031 75.7353 42.7575 78.2069 42.7575C79.584 42.7575 80.8114 41.413 81.6569 40.4516C82.2884 41.7468 83.2947 42.7178 84.6447 42.7573C87.916 42.8381 89.1685 37.6571 89.0543 38.3389C88.9647 38.8739 90.1156 42.7281 93.4833 42.7421C97.655 42.7595 98.4304 38.201 98.5228 37.4375C98.5344 37.2856 98.5395 37.3013 98.5228 37.4375L98.5197 37.4837C99.844 37.2389 100.527 36.5334 100.527 36.5334C100.527 36.5334 101.591 42.813 105.53 42.7423C109.621 42.6686 110.392 38.5479 110.493 37.7444C110.507 37.5538 110.514 37.5761 110.493 37.7444C110.493 37.7523 110.492 37.7601 110.492 37.768C112.065 37.1993 112.479 36.6285 112.479 36.6285C112.479 36.6285 113.324 42.7833 117.481 42.8371C121.186 42.8853 122.559 39.1154 122.567 37.5375C123.192 37.5441 124.348 37.1691 124.321 37.1478C124.321 37.1478 125.678 42.5291 129.467 42.8055C131.247 42.9352 132.581 41.8106 133.342 41.2976C135.13 42.7365 141.084 44.5744 144.844 38.2406C145.375 37.3317 144.234 36.2578 144.033 36.1176ZM60.1022 40.7162C58.2857 40.7162 57.1209 39.0471 57.1209 37.2475C57.1209 35.448 58.1901 33.779 60.0066 33.779C60.8241 33.779 61.2788 33.8684 61.9154 34.4186C62.0309 34.8706 62.358 35.9134 62.5172 36.3869C62.7306 37.0205 62.9843 37.5599 63.2401 38.1469C62.8746 39.6525 61.6764 40.7162 60.1022 40.7162ZM64.5288 34.4715C64.4533 34.3519 64.4691 34.4254 64.3845 34.3124C64.0516 33.4123 63.4099 31.4034 63.3355 29.1215C63.2515 26.5401 63.6845 23.5144 64.9609 23.5144C65.8258 23.5144 66.7449 29.6465 64.5286 34.4715H64.5288ZM90.1059 31.7819C89.9011 30.2501 89.8903 23.4214 91.5401 23.6094C92.451 23.9761 90.9625 30.4198 90.1059 31.7819ZM102.153 31.7819C101.948 30.2501 101.937 23.4214 103.587 23.6094C104.498 23.9761 103.009 30.4198 102.153 31.7819ZM114.104 31.8771C113.899 30.3451 113.888 23.5164 115.538 23.7044C116.449 24.0711 114.96 30.515 114.104 31.8771ZM127.298 23.2098C128.806 23.0544 128.744 29.5995 125.717 33.7317C125.326 32.2381 124.727 23.7226 127.298 23.2096V23.2098ZM133.638 37.2936C133.153 34.8619 134.405 33.2648 135.696 33.0897C136.147 33.0181 136.8 33.3085 136.931 33.8513C137.145 34.8743 136.9 36.3918 134.011 38.3171C134.016 38.3335 133.746 37.8352 133.638 37.2936H133.638Z" fill="#132238"/>
</g>
</g>
<defs>
<clipPath id="clip0_1833_15051">
<rect width="90" height="22" fill="white" transform="translate(55 21)"/>
</clipPath>
</defs>
</svg>
