<svg width="200" height="64" viewBox="0 0 200 64" fill="none" xmlns="http://www.w3.org/2000/svg">
<g clip-path="url(#clip0_421_1786)">
<path d="M77.7846 29.1827C79.0868 29.1827 80.1423 28.1267 80.1423 26.8242C80.1423 25.5216 79.0868 24.4658 77.7846 24.4658C76.4823 24.4658 75.4268 25.5216 75.4268 26.8242C75.4268 28.1267 76.4823 29.1827 77.7846 29.1827ZM155.598 37.2407C155.239 36.9884 154.962 36.9467 154.733 37.4364C150.773 46.0133 144.099 41.7333 144.762 42.11C146.242 41.4329 150.135 38.3107 149.547 33.9996C149.19 31.3649 146.928 30.1962 144.528 30.6147C140.338 31.3451 138.797 35.8642 139.582 39.8651C139.719 40.5522 139.964 41.1189 140.209 41.674C135.475 45.5242 133.595 38.2273 133.381 37.3553C133.373 37.3087 137.037 34.2544 138.056 26.9764C139.124 19.3487 136.691 17.9598 134.203 18.0031C129.598 18.0833 128.354 27.7036 130.026 35.7213C129.886 35.7578 129.234 36.1187 128.187 36.1591C127.434 33.7887 124.215 31.7109 123.373 32.5116C121.264 34.5144 123.884 38.4302 125.727 38.7373C124.62 45.5575 117.695 43.8684 118.984 35.3238C121.239 31.136 122.954 24.9091 122.648 21.15C122.54 19.8191 121.556 18.036 119.33 18.1244C115.05 18.2938 114.585 27.9167 115.087 34.7464C115.062 34.5782 114.823 35.5762 113.069 36.0724C112.655 33.7695 108.947 31.458 108.074 32.5693C106.44 34.6493 109.271 38.358 110.613 38.6167C109.505 45.4367 102.581 43.7475 103.87 35.2029C106.125 31.0153 107.84 24.7884 107.534 21.0293C107.425 19.6982 106.441 17.9151 104.216 18.0033C99.9357 18.1729 99.4703 27.7958 99.9721 34.6256C99.947 34.4547 99.7032 35.4855 97.8777 35.9735C97.8166 32.9858 94.095 31.6158 93.201 32.5691C91.6077 34.2684 93.5659 37.7551 95.3774 38.6167C94.2701 45.4367 87.3452 43.7475 88.6343 35.2029C90.8895 31.0153 92.6046 24.7884 92.2983 21.0293C92.1901 19.6982 91.2061 17.9151 88.9806 18.0033C84.7006 18.1729 84.3561 28.2796 84.8579 35.1091C83.4481 41.1493 78.7203 48.6924 79.3346 33.582C79.3952 32.522 79.4615 32.1196 78.933 31.7227C78.537 31.4142 77.6366 31.5627 77.1443 31.5749C76.5461 31.5989 76.3961 31.9489 76.2639 32.478C75.9559 33.8442 75.9006 35.1687 75.8566 36.9758C75.8277 37.8211 75.7599 38.2155 75.4343 39.3682C75.1092 40.5207 73.2544 42.6271 72.2388 42.2749C70.8299 41.7904 71.2921 37.8131 71.5561 35.0804C71.7761 32.9209 71.0717 31.9511 69.2668 31.5984C68.2101 31.3782 67.5681 31.412 66.4677 31.0651C65.427 30.7371 65.1917 28.7687 62.9721 29.4247C61.7581 29.7838 62.5386 32.356 62.2468 34.2624C60.8124 43.6404 57.8277 43.898 56.443 39.3424C62.6792 24.0689 58.247 18.0476 55.6526 18.0476C52.9504 18.0476 49.8615 19.9089 51.1695 31.8182C50.5335 31.6327 50.3379 31.5327 49.6417 31.5327C45.7041 31.5327 43.0215 34.7158 43.0215 38.6424C43.0215 42.5691 45.7044 45.7524 49.6419 45.7524C51.9664 45.7524 53.5984 44.6953 54.8344 43.06C55.6408 44.2149 56.6228 45.7702 58.4186 45.7002C63.7712 45.4918 65.3279 34.512 65.5117 33.8995C66.0839 33.9878 66.6252 34.1547 67.1537 34.2429C68.0341 34.3751 68.0981 34.7235 68.0781 35.6091C67.8448 43.0767 69.2228 45.6913 72.3486 45.6913C74.0901 45.6913 75.6423 43.9802 76.7117 42.7567C77.5103 44.4051 78.783 45.6409 80.4903 45.6911C84.6275 45.794 86.2115 39.2 86.067 40.0678C85.9537 40.7487 87.4092 45.654 91.6683 45.6718C96.9441 45.694 97.9248 39.8922 98.0417 38.9204C98.0563 38.7271 98.0628 38.7471 98.0417 38.9204L98.0377 38.9793C99.7126 38.6678 100.577 37.7698 100.577 37.7698C100.577 37.7698 101.922 45.762 106.903 45.672C112.077 45.5782 113.052 40.3338 113.18 39.3111C113.197 39.0684 113.207 39.0969 113.18 39.3111C113.18 39.3211 113.179 39.3311 113.178 39.3411C115.168 38.6173 115.691 37.8909 115.691 37.8909C115.691 37.8909 116.76 45.7242 122.018 45.7927C126.703 45.854 128.44 41.056 128.45 39.0478C129.24 39.0562 130.702 38.5789 130.668 38.5518C130.668 38.5518 132.384 45.4007 137.177 45.7524C139.427 45.9175 141.115 44.4862 142.077 43.8333C144.338 45.6647 151.868 48.0038 156.623 39.9427C157.294 38.7858 155.851 37.4191 155.598 37.2407ZM49.4519 43.0933C47.1546 43.0933 45.6815 40.9691 45.6815 38.6787C45.6815 36.3884 47.0337 34.2642 49.331 34.2642C50.3648 34.2642 50.9399 34.378 51.745 35.0782C51.891 35.6535 52.3048 36.9807 52.5061 37.5833C52.7759 38.3898 53.0968 39.0762 53.4204 39.8233C52.9581 41.7395 51.4428 43.0933 49.4519 43.0933ZM55.0501 35.1455C54.9546 34.9933 54.9746 35.0869 54.8677 34.9431C54.4466 33.7976 53.635 31.2407 53.541 28.3364C53.4348 25.0511 53.9824 21.2002 55.5966 21.2002C56.6904 21.2002 57.8528 29.0047 55.0499 35.1455H55.0501ZM87.397 31.7224C87.1379 29.7729 87.1243 21.0818 89.2108 21.3211C90.3628 21.7878 88.4803 29.9889 87.397 31.7224ZM102.632 31.7224C102.373 29.7729 102.36 21.0818 104.446 21.3211C105.598 21.7878 103.716 29.9889 102.632 31.7224ZM117.747 31.8436C117.487 29.8938 117.474 21.2027 119.56 21.442C120.712 21.9087 118.83 30.11 117.747 31.8436ZM134.433 20.8124C136.341 20.6147 136.262 28.9449 132.433 34.204C131.939 32.3031 131.182 21.4651 134.433 20.8122V20.8124ZM142.451 38.7373C141.838 35.6424 143.421 33.6098 145.053 33.3869C145.624 33.2958 146.45 33.6653 146.615 34.3562C146.886 35.6582 146.576 37.5896 142.923 40.04C142.929 40.0609 142.587 39.4267 142.451 38.7373H142.451Z" fill="#DD3E7B"/>
</g>
<defs>
<clipPath id="clip0_421_1786">
<rect width="113.821" height="28" fill="white" transform="translate(43 18)"/>
</clipPath>
</defs>
</svg>
