<svg width="20" height="20" viewBox="0 0 20 20" fill="none" xmlns="http://www.w3.org/2000/svg">
<path fill-rule="evenodd" clip-rule="evenodd" d="M19.8553 9.99576C19.8553 4.55063 15.4411 0.136475 9.996 0.136475C4.55088 0.136475 0.136719 4.55063 0.136719 9.99576C0.136719 15.4409 4.55088 19.855 9.996 19.855C9.33292 19.855 8.68531 19.7891 8.0589 19.6643V12.1572H6.45096V9.4767H8.0589V7.86761C8.0589 5.68082 8.96665 4.38066 11.5461 4.38066H13.6935V7.0614H12.3512C11.3471 7.0614 11.2806 7.43581 11.2806 8.13489L11.277 9.4765H13.7086L13.424 12.1568H11.277V19.7723C10.9011 19.8211 10.5228 19.8483 10.1438 19.854C15.5208 19.7749 19.8553 15.3915 19.8553 9.99576Z" fill="url(#paint0_linear_3141_1243)"/>
<defs>
<linearGradient id="paint0_linear_3141_1243" x1="9.996" y1="-0.0431714" x2="9.996" y2="20.6958" gradientUnits="userSpaceOnUse">
<stop stop-color="#00B2FF"/>
<stop offset="1" stop-color="#006AFF"/>
</linearGradient>
</defs>
</svg>
