<svg width="20" height="20" viewBox="0 0 20 20" fill="none" xmlns="http://www.w3.org/2000/svg">
<g clip-path="url(#clip0_3141_2258)">
<path d="M6.45864 20.0002C8.29828 20.0002 9.79131 18.5068 9.79131 16.6668V13.3335H6.45864C4.61901 13.3335 3.12598 14.8268 3.12598 16.6668C3.12598 18.5068 4.61901 20.0002 6.45864 20.0002Z" fill="#0ACF83"/>
<path d="M3.12598 9.99984C3.12598 8.15984 4.61901 6.6665 6.45864 6.6665H9.79131V13.3332H6.45864C4.61901 13.3332 3.12598 11.8398 3.12598 9.99984Z" fill="#A259FF"/>
<path d="M3.12598 3.33333C3.12598 1.49333 4.61901 0 6.45864 0H9.79131V6.66667H6.45864C4.61901 6.66667 3.12598 5.17333 3.12598 3.33333Z" fill="#F24E1E"/>
<path d="M9.79199 0H13.1247C14.9643 0 16.4573 1.49333 16.4573 3.33333C16.4573 5.17333 14.9643 6.66667 13.1247 6.66667H9.79199V0Z" fill="#FF7262"/>
<path d="M16.4573 9.99984C16.4573 11.8398 14.9643 13.3332 13.1247 13.3332C11.285 13.3332 9.79199 11.8398 9.79199 9.99984C9.79199 8.15984 11.285 6.6665 13.1247 6.6665C14.9643 6.6665 16.4573 8.15984 16.4573 9.99984Z" fill="#1ABCFE"/>
</g>
<defs>
<clipPath id="clip0_3141_2258">
<rect width="20" height="20" fill="white"/>
</clipPath>
</defs>
</svg>
