<svg width="20" height="20" viewBox="0 0 20 20" fill="none" xmlns="http://www.w3.org/2000/svg">
<g clip-path="url(#clip0_3141_2265)">
<path d="M9.96133 0C4.46055 0 0 4.58446 0 10.2399C0 14.7642 2.85422 18.6025 6.81219 19.9565C7.31 20.0513 7.49281 19.7344 7.49281 19.4639C7.49281 19.2197 7.48352 18.413 7.4793 17.5574C4.70797 18.1768 4.1232 16.3492 4.1232 16.3492C3.67008 15.1656 3.01719 14.851 3.01719 14.851C2.11344 14.2154 3.08531 14.2284 3.08531 14.2284C4.08563 14.3007 4.61234 15.2837 4.61234 15.2837C5.50078 16.8492 6.94266 16.3965 7.51109 16.135C7.60047 15.4731 7.85867 15.0214 8.14352 14.7657C5.93102 14.5067 3.60508 13.6287 3.60508 9.70507C3.60508 8.58716 3.99422 7.67365 4.63148 6.95656C4.52805 6.69861 4.18711 5.65716 4.72797 4.24668C4.72797 4.24668 5.56445 3.97146 7.46805 5.29633C8.26258 5.06937 9.11477 4.95565 9.96133 4.9518C10.8079 4.95565 11.6607 5.06937 12.4568 5.29633C14.3581 3.97146 15.1934 4.24668 15.1934 4.24668C15.7356 5.65716 15.3945 6.69861 15.2911 6.95656C15.9298 7.67365 16.3162 8.58708 16.3162 9.70507C16.3162 13.638 13.9859 14.504 11.7678 14.7575C12.1251 15.0753 12.4434 15.6985 12.4434 16.6538C12.4434 18.0238 12.4319 19.1266 12.4319 19.4639C12.4319 19.7364 12.6112 20.0557 13.1162 19.9551C17.072 18.5996 19.9226 14.7626 19.9226 10.2399C19.9226 4.58446 15.4627 0 9.96133 0Z" fill="#161614"/>
<path d="M3.73067 14.5867C3.70879 14.6376 3.63083 14.6528 3.55997 14.618C3.4877 14.5846 3.44707 14.5152 3.47051 14.4641C3.492 14.4117 3.56997 14.3971 3.64208 14.4323C3.7145 14.4656 3.75575 14.5357 3.73067 14.5867ZM4.22067 15.0361C4.17317 15.0814 4.08028 15.0604 4.01723 14.9888C3.95208 14.9174 3.93989 14.822 3.98809 14.776C4.03708 14.7308 4.12716 14.7519 4.19247 14.8234C4.25762 14.8956 4.27028 14.9904 4.22059 15.0362L4.22067 15.0361ZM4.55685 15.6112C4.49575 15.6548 4.39591 15.6139 4.33427 15.5228C4.27325 15.4318 4.27325 15.3226 4.33559 15.2788C4.39747 15.2351 4.49575 15.2744 4.55825 15.3648C4.61919 15.4574 4.61919 15.5666 4.55677 15.6112L4.55685 15.6112ZM5.12529 16.2772C5.07068 16.339 4.95442 16.3225 4.86927 16.238C4.78224 16.1554 4.75794 16.0382 4.81271 15.9763C4.86794 15.9143 4.98489 15.9317 5.07068 16.0155C5.15716 16.0979 5.18357 16.216 5.12536 16.2772H5.12529ZM5.85998 16.502C5.83599 16.5822 5.72396 16.6186 5.61115 16.5846C5.49849 16.5495 5.42474 16.4555 5.44747 16.3745C5.47091 16.2938 5.58341 16.2558 5.69708 16.2923C5.80959 16.3272 5.88349 16.4204 5.86005 16.502H5.85998ZM6.69623 16.5974C6.69904 16.6818 6.60334 16.7519 6.4849 16.7534C6.36576 16.756 6.26943 16.6877 6.26818 16.6047C6.26818 16.5194 6.3617 16.45 6.48076 16.448C6.5992 16.4456 6.69623 16.5134 6.69623 16.5974ZM7.51764 16.565C7.53186 16.6474 7.44951 16.732 7.33194 16.7545C7.21631 16.7762 7.10928 16.7254 7.09451 16.6437C7.08014 16.5592 7.16404 16.4746 7.27944 16.4527C7.39725 16.4317 7.50264 16.4812 7.51764 16.565Z" fill="#161614"/>
</g>
<defs>
<clipPath id="clip0_3141_2265">
<rect width="20" height="20" fill="white"/>
</clipPath>
</defs>
</svg>
