<svg width="200" height="64" viewBox="0 0 200 64" fill="none" xmlns="http://www.w3.org/2000/svg">
<g opacity="0.4">
<g clip-path="url(#clip0_1833_15075)">
<path d="M61.6844 19.0031H62.6004C65.7802 19.073 68.9083 20.3663 71.1549 22.6559C70.3254 23.5123 69.4786 24.3337 68.6663 25.1901C67.4047 24.0366 65.8839 23.1452 64.2249 22.8307C61.7708 22.3063 59.1267 22.7782 57.0702 24.1939C54.8235 25.6795 53.3027 28.1963 52.9744 30.8878C52.6114 33.5444 53.3546 36.3408 55.0655 38.4032C56.7072 40.4131 59.2131 41.6715 61.8054 41.7589C64.2249 41.8987 66.748 41.1472 68.5108 39.4344C69.8933 38.2284 70.5327 36.3933 70.7401 34.6106C67.8713 34.6106 65.0025 34.628 62.1338 34.6106V31.0102H74.2138C74.8359 34.8727 73.9373 39.2247 71.0339 41.9861C69.0984 43.9436 66.4197 45.0971 63.6891 45.3243C61.045 45.5865 58.3145 45.0797 55.9641 43.7863C53.1472 42.2658 50.9005 39.6966 49.7945 36.6729C48.7576 33.894 48.7403 30.748 49.7081 27.9516C50.5895 25.3999 52.2831 23.1452 54.4606 21.5723C56.5517 20.0168 59.0921 19.1604 61.6844 19.0031Z" fill="#132238"/>
<path d="M130.985 19.9119H134.684V44.8699C133.457 44.8699 132.212 44.8874 130.985 44.8524C131.003 36.5506 130.985 28.2312 130.985 19.9119Z" fill="#132238"/>
<path d="M82.4405 28.5632C84.7217 28.1263 87.193 28.6157 89.0767 29.9964C90.7876 31.2198 91.9801 33.1424 92.343 35.2397C92.8096 37.6691 92.222 40.3257 90.6667 42.2482C88.9903 44.398 86.2425 45.5515 83.5638 45.3767C81.1098 45.2369 78.7249 43.996 77.2732 41.9686C75.6314 39.7314 75.2339 36.6554 76.1326 34.0337C77.0312 31.2198 79.5717 29.0701 82.4405 28.5632ZM82.9589 31.884C82.0257 32.1287 81.1616 32.6705 80.5395 33.4395C78.8631 35.4669 78.9668 38.7702 80.816 40.6578C81.8702 41.7414 83.4601 42.2482 84.9291 41.9511C86.2943 41.7064 87.4868 40.7801 88.1435 39.5567C89.2841 37.4768 88.9557 34.6105 87.2103 32.9851C86.0869 31.9364 84.4452 31.4995 82.9589 31.884Z" fill="#132238"/>
<path d="M100.759 28.5633C103.369 28.0565 106.22 28.7905 108.173 30.6431C111.353 33.5269 111.699 38.9275 108.985 42.2483C107.344 44.3456 104.682 45.4991 102.055 45.3768C99.5495 45.3068 97.0782 44.0485 95.592 41.9686C93.9156 39.6791 93.5527 36.5331 94.5032 33.859C95.4537 31.1325 97.9423 29.0527 100.759 28.5633ZM101.278 31.8841C100.344 32.1287 99.4804 32.6705 98.8582 33.4221C97.1992 35.4145 97.2683 38.6654 99.0483 40.5704C100.103 41.7065 101.744 42.2657 103.265 41.9511C104.613 41.689 105.823 40.7801 106.48 39.5567C107.603 37.4594 107.274 34.5931 105.512 32.9677C104.388 31.919 102.747 31.4995 101.278 31.8841Z" fill="#132238"/>
<path d="M116.296 29.5769C118.283 28.3186 120.927 27.969 123.07 29.0526C123.744 29.3497 124.297 29.8566 124.833 30.3634C124.85 29.8915 124.833 29.4022 124.85 28.9128C126.008 28.9303 127.166 28.9128 128.341 28.9303V44.3455C128.324 46.6701 127.736 49.1344 126.077 50.8297C124.263 52.6998 121.48 53.2766 118.974 52.8921C116.296 52.4901 113.963 50.5151 112.926 48.0158C113.963 47.509 115.051 47.107 116.123 46.6351C116.728 48.0683 117.955 49.2917 119.493 49.5713C121.031 49.851 122.811 49.4665 123.813 48.1731C124.885 46.8448 124.885 45.0272 124.833 43.4017C124.038 44.1882 123.122 44.8873 122.016 45.1495C119.614 45.8311 116.97 44.9922 115.121 43.3493C113.254 41.7064 112.148 39.1722 112.252 36.6554C112.304 33.8065 113.894 31.0625 116.296 29.5769ZM119.873 31.8141C118.819 31.9889 117.834 32.5831 117.16 33.4045C115.535 35.362 115.535 38.4905 117.177 40.4131C118.11 41.5491 119.614 42.1783 121.066 42.021C122.431 41.8812 123.692 41.0073 124.366 39.8014C125.507 37.7565 125.317 34.9775 123.779 33.1948C122.828 32.0937 121.308 31.5519 119.873 31.8141Z" fill="#132238"/>
<path d="M139.125 30.4683C141.199 28.5109 144.396 27.8467 147.058 28.8779C149.581 29.8392 151.188 32.2685 152 34.7678C148.25 36.3408 144.517 37.8963 140.767 39.4693C141.285 40.4655 142.08 41.3744 143.152 41.7414C144.655 42.2832 146.453 42.091 147.714 41.0773C148.215 40.6928 148.613 40.1859 148.993 39.6965C149.944 40.3432 150.894 40.9724 151.845 41.6191C150.497 43.6639 148.233 45.0971 145.796 45.3243C143.1 45.6564 140.231 44.6077 138.486 42.4755C135.617 39.1198 135.893 33.492 139.125 30.4683ZM140.974 33.7017C140.387 34.5581 140.145 35.6068 140.162 36.6379C142.668 35.5893 145.174 34.5406 147.68 33.4745C147.265 32.4958 146.263 31.9015 145.243 31.7442C143.601 31.4471 141.89 32.3385 140.974 33.7017Z" fill="#132238"/>
</g>
</g>
<defs>
<clipPath id="clip0_1833_15075">
<rect width="103" height="34" fill="white" transform="translate(49 19)"/>
</clipPath>
</defs>
</svg>
