<svg width="200" height="64" viewBox="0 0 200 64" fill="none" xmlns="http://www.w3.org/2000/svg">
<g clip-path="url(#clip0_421_1789)">
<path d="M54.0926 12.0035H55.1823C58.9657 12.0858 62.6874 13.6074 65.3605 16.301C64.3735 17.3085 63.366 18.2749 62.3996 19.2825C60.8985 17.9254 59.0891 16.8767 57.1152 16.5066C54.1954 15.8897 51.0494 16.4449 48.6025 18.1104C45.9295 19.8582 44.12 22.8191 43.7294 25.9856C43.2975 29.111 44.1817 32.4009 46.2173 34.8273C48.1707 37.1919 51.1522 38.6723 54.2365 38.7751C57.1152 38.9396 60.1172 38.0555 62.2145 36.0404C63.8595 34.6216 64.6203 32.4626 64.867 30.3653C61.4537 30.3653 58.0404 30.3859 54.6272 30.3653V26.1296H68.9999C69.7402 30.6737 68.6709 35.7937 65.2165 39.0424C62.9136 41.3454 59.7265 42.7025 56.4777 42.9698C53.3318 43.2782 50.083 42.6819 47.2866 41.1603C43.935 39.3714 41.2619 36.3488 39.946 32.7916C38.7122 29.5223 38.6917 25.8211 39.8431 22.5312C40.8918 19.5292 42.9069 16.8767 45.4977 15.0261C47.9857 13.1961 51.0083 12.1886 54.0926 12.0035Z" fill="#3780FF"/>
<path d="M136.546 13.0728H140.946V42.4352C139.486 42.4352 138.006 42.4557 136.546 42.4146C136.566 32.6477 136.546 22.8602 136.546 13.0728Z" fill="#38B137"/>
<path d="M78.7873 23.2509C81.5015 22.7369 84.4419 23.3126 86.6831 24.937C88.7188 26.3763 90.1375 28.6381 90.5693 31.1056C91.1245 33.9637 90.4254 37.0891 88.5748 39.3509C86.5803 41.88 83.311 43.2371 80.1239 43.0315C77.2041 42.867 74.3665 41.4071 72.6393 39.0219C70.6859 36.39 70.213 32.7711 71.2822 29.6868C72.3514 26.3763 75.3741 23.8472 78.7873 23.2509ZM79.4042 27.1577C78.2938 27.4455 77.2658 28.083 76.5255 28.9877C74.531 31.3729 74.6544 35.2591 76.8545 37.4797C78.1088 38.7546 80.0005 39.3509 81.7483 39.0013C83.3726 38.7135 84.7914 37.6237 85.5728 36.1843C86.9299 33.7375 86.5392 30.3653 84.4624 28.4531C83.1259 27.2194 81.1725 26.7053 79.4042 27.1577Z" fill="#FA3913"/>
<path d="M100.583 23.2509C103.688 22.6546 107.081 23.5182 109.404 25.6978C113.188 29.0905 113.599 35.4441 110.371 39.3508C108.417 41.8183 105.251 43.1754 102.125 43.0314C99.1438 42.9492 96.2034 41.4687 94.4351 39.0219C92.4406 36.3282 92.0088 32.6271 93.1397 29.4811C94.2706 26.2735 97.2315 23.8266 100.583 23.2509ZM101.2 27.1577C100.09 27.4455 99.0615 28.0829 98.3213 28.9671C96.3473 31.3112 96.4296 35.1357 98.5475 37.3769C99.8017 38.7134 101.755 39.3714 103.565 39.0013C105.168 38.6929 106.608 37.6236 107.389 36.1843C108.726 33.7169 108.335 30.3447 106.238 28.4325C104.901 27.1988 102.948 26.7053 101.2 27.1577Z" fill="#FCBD06"/>
<path d="M119.068 24.4435C121.433 22.963 124.579 22.5518 127.128 23.8266C127.93 24.1762 128.588 24.7725 129.226 25.3688C129.246 24.8136 129.226 24.2379 129.246 23.6621C130.624 23.6827 132.001 23.6621 133.4 23.6827V41.8183C133.379 44.553 132.68 47.4523 130.706 49.4468C128.547 51.6469 125.237 52.3254 122.255 51.8731C119.068 51.4001 116.292 49.0767 115.058 46.1363C116.292 45.54 117.588 45.0671 118.862 44.5119C119.582 46.198 121.042 47.6373 122.872 47.9663C124.702 48.2953 126.82 47.8429 128.012 46.3214C129.287 44.7587 129.287 42.6202 129.226 40.708C128.28 41.6332 127.19 42.4557 125.874 42.7642C123.016 43.5661 119.87 42.5791 117.67 40.6463C115.449 38.7135 114.133 35.732 114.257 32.7711C114.318 29.4195 116.21 26.1913 119.068 24.4435ZM123.324 27.0754C122.07 27.281 120.898 27.9801 120.096 28.9465C118.163 31.2495 118.163 34.9301 120.117 37.1919C121.227 38.5284 123.016 39.2686 124.743 39.0836C126.367 38.9191 127.869 37.891 128.67 36.4722C130.028 34.0665 129.801 30.7971 127.971 28.6998C126.84 27.4044 125.031 26.767 123.324 27.0754Z" fill="#3780FF"/>
<path d="M146.23 25.4922C148.698 23.1892 152.502 22.4079 155.668 23.621C158.67 24.7519 160.583 27.61 161.549 30.5504C157.087 32.401 152.646 34.231 148.184 36.0815C148.801 37.2536 149.747 38.3228 151.021 38.7546C152.81 39.392 154.949 39.1658 156.45 37.9732C157.046 37.5209 157.519 36.9246 157.971 36.3488C159.102 37.1096 160.233 37.8499 161.364 38.6107C159.76 41.0164 157.067 42.7025 154.167 42.9698C150.96 43.3605 147.546 42.1267 145.47 39.6182C142.056 35.6703 142.385 29.0494 146.23 25.4922ZM148.431 29.2961C147.731 30.3036 147.444 31.5374 147.464 32.7505C150.446 31.5168 153.427 30.2831 156.409 29.0288C155.915 27.8773 154.723 27.1782 153.509 26.9932C151.556 26.6436 149.52 27.6923 148.431 29.2961Z" fill="#FA3913"/>
</g>
<defs>
<clipPath id="clip0_421_1789">
<rect width="122.549" height="40" fill="white" transform="translate(39 12)"/>
</clipPath>
</defs>
</svg>
