<svg width="200" height="64" viewBox="0 0 200 64" fill="none" xmlns="http://www.w3.org/2000/svg">
<g opacity="0.4">
<g clip-path="url(#clip0_1833_15067)">
<path d="M100.557 40.5221C100.557 40.9089 100.557 40.9968 100.815 41.2341L102.255 42.6757V42.7372H95.8693V39.9684C95.2265 41.7931 93.5266 43 91.6349 42.9745C88.3522 42.9745 85.9694 40.3375 85.9694 35.4855C85.9694 30.9411 88.5406 27.9086 92.1492 27.9086C93.7488 27.8055 95.2375 28.7504 95.8606 30.2643V24.1556C95.884 24.0172 95.8692 23.875 95.8177 23.7446C95.7662 23.6143 95.6802 23.501 95.5691 23.4172L94.1977 22.0636V22.0021L100.557 21.2373V40.5221ZM95.8693 39.6431V30.528C95.6424 30.2378 95.3528 30.0045 95.0229 29.846C94.6929 29.6875 94.3314 29.608 93.9663 29.6138C92.415 29.6138 90.915 31.0554 90.915 35.3361C90.915 39.3443 92.2093 40.7595 93.8207 40.7595C94.2247 40.7503 94.6209 40.6444 94.9768 40.4504C95.3328 40.2564 95.6385 39.9798 95.869 39.6431H95.8693ZM104.792 42.7372V30.4313C104.812 30.2963 104.799 30.1583 104.754 30.0295C104.709 29.9007 104.634 29.7851 104.535 29.6929L103.12 28.1987V28.1371H109.506V40.6188C109.506 41.0056 109.506 41.0935 109.763 41.3308L111.169 42.6844V42.746L104.792 42.7372ZM104.56 23.6367C104.56 22.1805 105.712 21 107.132 21C108.552 21 109.703 22.1808 109.703 23.637C109.703 25.0932 108.552 26.274 107.132 26.274C105.712 26.274 104.56 25.0932 104.56 23.637V23.6367ZM126.734 40.4958C126.734 40.8825 126.734 40.9968 126.991 41.2341L128.431 42.6757V42.7372H122.011V39.5816C121.427 41.5769 119.646 42.9511 117.614 42.9745C114.769 42.9745 113.243 40.8474 113.243 36.8216C113.243 34.879 113.243 32.7518 113.303 30.361C113.326 30.2298 113.315 30.0948 113.269 29.9697C113.224 29.8446 113.147 29.7339 113.046 29.649L111.632 28.1987V28.1371H117.966V36.1623C117.966 38.7993 118.343 40.5573 119.954 40.5573C120.382 40.529 120.795 40.3928 121.158 40.161C121.52 39.9292 121.819 39.6091 122.028 39.23V30.4401C122.049 30.3051 122.036 30.1671 121.991 30.0383C121.946 29.9095 121.871 29.7939 121.771 29.7017L120.349 28.1987V28.1371H126.734V40.4958ZM148.471 42.7372C148.471 42.2625 148.557 36.2151 148.557 34.8263C148.557 32.1893 148.154 30.3698 146.345 30.3698C145.895 30.3847 145.455 30.5072 145.06 30.7271C144.666 30.947 144.328 31.2583 144.074 31.6355C144.255 32.4574 144.341 33.2983 144.331 34.1406C144.331 35.9689 144.271 38.2983 144.245 40.6276C144.222 40.7587 144.233 40.8938 144.279 41.0189C144.324 41.144 144.401 41.2547 144.502 41.3396L145.942 42.6932V42.7548H139.497C139.497 42.3153 139.582 36.2326 139.582 34.8438C139.582 32.1629 139.18 30.3873 137.397 30.3873C136.963 30.4042 136.54 30.5323 136.169 30.7598C135.797 30.9874 135.488 31.3068 135.271 31.6883V40.654C135.271 41.0407 135.271 41.1286 135.528 41.366L136.934 42.7196V42.7811H130.557V30.4752C130.577 30.3402 130.564 30.2022 130.519 30.0734C130.475 29.9447 130.399 29.8291 130.3 29.7369L128.885 28.1987V28.1371H135.271V31.2663C135.863 29.2007 137.75 27.8125 139.848 27.8998C141.974 27.8998 143.414 29.1128 144.022 31.4158C144.698 29.2918 146.644 27.8667 148.822 27.8998C151.668 27.8998 153.279 30.0533 153.279 34.1231C153.279 36.0656 153.219 38.2807 153.194 40.61C153.169 40.7446 153.183 40.8834 153.235 41.0098C153.287 41.1362 153.374 41.2447 153.485 41.322L154.891 42.6757V42.7372H148.471ZM68.2526 40.821L70.1469 42.6757V42.7372H60.5385V42.6757L62.4672 40.821C62.5684 40.7361 62.6456 40.6254 62.6908 40.5003C62.736 40.3752 62.7475 40.2401 62.7243 40.109V28.2514C62.7243 27.7504 62.7243 27.0735 62.8098 26.4934L56.3299 42.9748H56.253L49.5417 27.8122C49.3958 27.4342 49.3531 27.4079 49.2586 27.1529V37.0943C49.1783 37.7594 49.2885 38.4338 49.5761 39.0369L52.2758 42.6759V42.7375H45.1104V42.6759L47.8104 39.0281C48.0956 38.4274 48.2056 37.7564 48.1273 37.0943V26.1069C48.1715 25.5668 48.0123 25.0298 47.6818 24.6039L45.7705 22.0636V22.0021H52.6274L58.3701 34.8441L63.4272 22.0021H70.1382V22.0636L68.2526 24.2171C68.1415 24.3009 68.0555 24.4142 68.004 24.5445C67.9526 24.6749 67.9377 24.8171 67.9611 24.9555V40.1093C67.9365 40.2439 67.951 40.3828 68.0028 40.5092C68.0546 40.6356 68.1415 40.744 68.2529 40.8213L68.2526 40.821ZM75.7697 34.879V34.9405C75.7697 38.7026 77.664 40.2145 79.8838 40.2145C81.7374 40.2792 83.4531 39.2133 84.2551 37.4984H84.3152C83.5438 41.2165 81.298 42.9745 77.9381 42.9745C74.3125 42.9745 70.8925 40.7331 70.8925 35.5382C70.8925 30.0797 74.3211 27.8998 78.1094 27.8998C81.161 27.8998 84.4094 29.3765 84.4094 34.1231V34.879H75.7697ZM75.7697 34.1231H79.9953V33.3583C79.9953 29.4908 79.2153 28.4624 78.041 28.4624C76.6182 28.4624 75.7526 30.0006 75.7526 34.1231H75.7697Z" fill="#132238"/>
</g>
</g>
<defs>
<clipPath id="clip0_1833_15067">
<rect width="110" height="22" fill="white" transform="translate(45 21)"/>
</clipPath>
</defs>
</svg>
