<svg width="200" height="64" viewBox="0 0 200 64" fill="none" xmlns="http://www.w3.org/2000/svg">
<g clip-path="url(#clip0_421_1805)">
<path d="M100.591 42.0716C100.591 42.5287 100.591 42.6326 100.899 42.913L102.625 44.6167V44.6894H94.9714V41.4171C94.201 43.5737 92.1635 45 89.8961 44.9699C85.9615 44.9699 83.1054 41.8534 83.1054 36.1192C83.1054 30.7486 86.1872 27.1647 90.5125 27.1647C92.4298 27.0428 94.2141 28.1595 94.961 29.9487V22.7293C94.9891 22.5658 94.9713 22.3977 94.9096 22.2437C94.8479 22.0897 94.7448 21.9557 94.6116 21.8567L92.9679 20.257V20.1842L100.591 19.2805V42.0716ZM94.9714 41.0328V30.2603C94.6995 29.9174 94.3524 29.6417 93.9569 29.4543C93.5614 29.267 93.1281 29.1731 92.6905 29.18C90.8311 29.18 89.0332 30.8836 89.0332 35.9426C89.0332 40.6796 90.5845 42.3521 92.516 42.3521C93.0002 42.3412 93.4751 42.2161 93.9017 41.9868C94.3284 41.7575 94.6948 41.4306 94.9711 41.0328H94.9714ZM105.666 44.6894V30.1461C105.69 29.9865 105.675 29.8234 105.621 29.6712C105.567 29.519 105.477 29.3824 105.358 29.2735L103.662 27.5075V27.4348H111.316V42.1859C111.316 42.6429 111.316 42.7468 111.625 43.0273L113.31 44.6271V44.6998L105.666 44.6894ZM105.389 22.1161C105.389 20.3951 106.768 19 108.47 19C110.172 19 111.553 20.3955 111.553 22.1164C111.553 23.8374 110.173 25.2329 108.471 25.2329C106.769 25.2329 105.389 23.8374 105.389 22.1164V22.1161ZM131.966 42.0404C131.966 42.4975 131.966 42.6326 132.274 42.913L134 44.6167V44.6894H126.305V40.9601C125.604 43.3182 123.47 44.9422 121.035 44.9699C117.624 44.9699 115.796 42.456 115.796 37.6982C115.796 35.4024 115.796 32.8885 115.867 30.063C115.895 29.908 115.881 29.7484 115.827 29.6005C115.773 29.4527 115.681 29.3219 115.559 29.2215L113.864 27.5075V27.4348H121.456V36.9191C121.456 40.0355 121.908 42.1132 123.84 42.1132C124.352 42.0798 124.848 41.9188 125.282 41.6448C125.716 41.3708 126.075 40.9926 126.326 40.5446V30.1565C126.35 29.9969 126.335 29.8338 126.281 29.6816C126.227 29.5294 126.137 29.3928 126.018 29.2839L124.312 27.5075V27.4348H131.966V42.0404ZM158.02 44.6894C158.02 44.1284 158.122 36.9814 158.122 35.3401C158.122 32.2237 157.639 30.0734 155.472 30.0734C154.932 30.0911 154.405 30.2357 153.932 30.4957C153.459 30.7556 153.053 31.1234 152.749 31.5692C152.967 32.5405 153.07 33.5343 153.057 34.5298C153.057 36.6906 152.985 39.4434 152.955 42.1963C152.927 42.3512 152.941 42.5108 152.995 42.6587C153.049 42.8065 153.141 42.9373 153.263 43.0377L154.989 44.6375V44.7102H147.263C147.263 44.1908 147.366 37.0022 147.366 35.3609C147.366 32.1925 146.883 30.0941 144.746 30.0941C144.226 30.114 143.72 30.2655 143.274 30.5344C142.829 30.8032 142.458 31.1807 142.198 31.6316V42.2274C142.198 42.6845 142.198 42.7884 142.507 43.0689L144.192 44.6686V44.7413H136.548V30.198C136.572 30.0384 136.557 29.8754 136.503 29.7232C136.449 29.571 136.359 29.4344 136.24 29.3254L134.544 27.5075V27.4348H142.198V31.1329C142.908 28.6917 145.169 27.0511 147.684 27.1543C150.232 27.1543 151.958 28.5879 152.688 31.3095C153.498 28.7994 155.83 27.1152 158.441 27.1543C161.851 27.1543 163.783 29.6994 163.783 34.5091C163.783 36.8048 163.711 39.4226 163.68 42.1755C163.651 42.3345 163.668 42.4986 163.73 42.648C163.792 42.7973 163.896 42.9255 164.029 43.0169L165.714 44.6167V44.6894H158.02ZM61.8701 42.4248L64.1406 44.6167V44.6894H52.624V44.6167L54.9357 42.4248C55.0571 42.3244 55.1495 42.1936 55.2037 42.0458C55.2579 41.8979 55.2717 41.7383 55.2439 41.5834V27.5698C55.2439 26.9777 55.2439 26.1778 55.3464 25.4922L47.5796 44.9702H47.4875L39.4433 27.0508C39.2684 26.6041 39.2172 26.5729 39.1039 26.2717V38.0206C39.0077 38.8065 39.1398 39.6035 39.4845 40.3164L42.7204 44.617V44.6897H34.1318V44.617L37.3681 40.306C37.71 39.596 37.8418 38.803 37.7479 38.0206V25.0355C37.8009 24.3971 37.6101 23.7624 37.214 23.2591L34.9231 20.257V20.1842H43.1418L50.0249 35.3612L56.0864 20.1842H64.1302V20.257L61.8701 22.802C61.737 22.901 61.6338 23.035 61.5722 23.189C61.5105 23.343 61.4927 23.5111 61.5207 23.6746V41.5837C61.4913 41.7428 61.5086 41.9069 61.5707 42.0563C61.6328 42.2057 61.7369 42.3338 61.8705 42.4251L61.8701 42.4248ZM70.88 35.4024V35.4752C70.88 39.9213 73.1505 41.708 75.8113 41.708C78.0329 41.7845 80.0894 40.5248 81.0507 38.4981H81.1227C80.1982 42.8923 77.5063 44.9699 73.4791 44.9699C69.1335 44.9699 65.0343 42.3209 65.0343 36.1816C65.0343 29.7305 69.1439 27.1543 73.6845 27.1543C77.3421 27.1543 81.2356 28.8995 81.2356 34.5091V35.4024H70.88ZM70.88 34.5091H75.9449V33.6053C75.9449 29.0345 75.01 27.8191 73.6024 27.8191C71.897 27.8191 70.8596 29.6371 70.8596 34.5091H70.88Z" fill="#A5ACB5"/>
</g>
<defs>
<clipPath id="clip0_421_1805">
<rect width="131.846" height="26" fill="white" transform="translate(34 19)"/>
</clipPath>
</defs>
</svg>
