<svg width="200" height="64" viewBox="0 0 200 64" fill="none" xmlns="http://www.w3.org/2000/svg">
<g clip-path="url(#clip0_421_1782)">
<path d="M172 30.5415V28.0185H168.867V24.0963L168.761 24.1287L165.818 25.0291L165.76 25.0468V28.0187H161.116V26.3631C161.116 25.5922 161.288 25.0022 161.628 24.6088C161.965 24.2201 162.448 24.0224 163.063 24.0224C163.506 24.0224 163.964 24.1267 164.425 24.3322L164.54 24.3838V21.7268L164.486 21.7068C164.056 21.5522 163.471 21.4743 162.746 21.4743C161.832 21.4743 161.002 21.6732 160.277 22.0673C159.553 22.462 158.983 23.0255 158.584 23.7418C158.186 24.4574 157.984 25.2838 157.984 26.1983V28.0185H155.802V30.5415H157.984V41.1704H161.116V30.5415H165.76V37.296C165.76 40.0778 167.073 41.4875 169.66 41.4875C170.086 41.4875 170.533 41.4376 170.99 41.3401C171.455 41.2399 171.772 41.1398 171.959 41.033L172 41.0085V38.4623L171.872 38.5465C171.702 38.6597 171.491 38.7523 171.243 38.8211C170.993 38.8912 170.785 38.9263 170.624 38.9263C170.018 38.9263 169.569 38.763 169.291 38.4406C169.01 38.1153 168.867 37.5465 168.867 36.7507V30.5415H172ZM148.808 38.9267C147.672 38.9267 146.775 38.5498 146.144 37.8074C145.508 37.0612 145.186 35.9973 145.186 34.6456C145.186 33.251 145.508 32.1595 146.144 31.4001C146.776 30.6457 147.664 30.2629 148.783 30.2629C149.869 30.2629 150.733 30.6285 151.353 31.3503C151.975 32.0758 152.291 33.1586 152.291 34.5694C152.291 35.9976 151.994 37.0946 151.408 37.8285C150.826 38.5568 149.952 38.9267 148.808 38.9267ZM148.948 27.7017C146.779 27.7017 145.056 28.3372 143.828 29.5905C142.601 30.8439 141.979 32.5785 141.979 34.7465C141.979 36.8057 142.586 38.462 143.784 39.6687C144.982 40.8757 146.613 41.4872 148.631 41.4872C150.733 41.4872 152.421 40.8428 153.649 39.5722C154.876 38.3029 155.498 36.5847 155.498 34.4674C155.498 32.376 154.914 30.7074 153.763 29.5087C152.611 28.3096 150.991 27.7017 148.948 27.7017ZM136.929 27.7017C135.454 27.7017 134.234 28.0791 133.302 28.823C132.364 29.5715 131.888 30.553 131.888 31.7408C131.888 32.3583 131.991 32.9067 132.193 33.3719C132.396 33.8386 132.711 34.2495 133.129 34.5944C133.543 34.9365 134.184 35.2948 135.032 35.6594C135.746 35.9529 136.278 36.2012 136.615 36.3968C136.946 36.5886 137.18 36.7814 137.313 36.9691C137.441 37.1529 137.506 37.4044 137.506 37.7147C137.506 38.5983 136.845 39.0282 135.483 39.0282C134.978 39.0282 134.402 38.9227 133.771 38.7148C133.145 38.5101 132.553 38.2102 132.018 37.8258L131.888 37.7326V40.7478L131.935 40.77C132.379 40.9745 132.937 41.147 133.596 41.2828C134.253 41.4186 134.85 41.4877 135.369 41.4877C136.97 41.4877 138.259 41.1086 139.199 40.3602C140.146 39.6066 140.626 38.6019 140.626 37.373C140.626 36.4865 140.368 35.7263 139.859 35.1131C139.353 34.505 138.475 33.9467 137.252 33.4532C136.277 33.0619 135.652 32.737 135.394 32.4876C135.146 32.2467 135.02 31.906 135.02 31.4745C135.02 31.0921 135.175 30.7856 135.495 30.5375C135.817 30.2881 136.265 30.1613 136.828 30.1613C137.35 30.1613 137.883 30.2437 138.414 30.4052C138.945 30.5668 139.411 30.7831 139.8 31.0478L139.928 31.1352V28.275L139.879 28.2539C139.52 28.1 139.047 27.9683 138.472 27.8615C137.9 27.7553 137.381 27.7017 136.929 27.7017ZM123.724 38.9267C122.587 38.9267 121.691 38.5498 121.059 37.8074C120.424 37.0612 120.102 35.9976 120.102 34.6456C120.102 33.251 120.424 32.1595 121.06 31.4001C121.691 30.6457 122.579 30.2629 123.698 30.2629C124.784 30.2629 125.648 30.6285 126.268 31.3503C126.89 32.0758 127.206 33.1586 127.206 34.5694C127.206 35.9976 126.909 37.0946 126.323 37.8285C125.742 38.5568 124.867 38.9267 123.724 38.9267ZM123.863 27.7017C121.694 27.7017 119.971 28.3372 118.744 29.5905C117.516 30.8439 116.894 32.5785 116.894 34.7465C116.894 36.8065 117.502 38.462 118.7 39.6687C119.898 40.8757 121.529 41.4872 123.546 41.4872C125.648 41.4872 127.337 40.8428 128.564 39.5722C129.791 38.3029 130.413 36.5847 130.413 34.4674C130.413 32.376 129.83 30.7074 128.678 29.5087C127.526 28.3096 125.906 27.7017 123.863 27.7017ZM112.14 30.2962V28.0185H109.046V41.1701H112.14V34.4426C112.14 33.2986 112.399 32.3588 112.911 31.649C113.416 30.9476 114.09 30.5922 114.912 30.5922C115.19 30.5922 115.503 30.6381 115.842 30.729C116.177 30.8194 116.42 30.9175 116.563 31.0207L116.693 31.115V27.9961L116.643 27.9746C116.355 27.8522 115.948 27.7904 115.432 27.7904C114.654 27.7904 113.959 28.0402 113.363 28.532C112.84 28.9643 112.462 29.557 112.173 30.2962H112.14ZM103.506 27.7017C102.087 27.7017 100.821 28.0061 99.7441 28.606C98.6651 29.2073 97.8306 30.0658 97.2629 31.1574C96.6976 32.2464 96.4106 33.5184 96.4106 34.937C96.4106 36.1796 96.6889 37.32 97.2389 38.325C97.7891 39.3317 98.5679 40.1193 99.5538 40.6655C100.538 41.211 101.676 41.4876 102.936 41.4876C104.406 41.4876 105.661 41.1937 106.668 40.614L106.708 40.5907V37.7564L106.578 37.8514C106.123 38.1835 105.613 38.4485 105.065 38.6395C104.518 38.8303 104.02 38.9267 103.583 38.9267C102.369 38.9267 101.394 38.5469 100.687 37.7981C99.9779 37.0483 99.6185 35.9953 99.6185 34.6704C99.6185 33.3372 99.9933 32.2572 100.732 31.4604C101.469 30.6659 102.445 30.2629 103.634 30.2629C104.65 30.2629 105.641 30.6072 106.579 31.2872L106.708 31.3814V28.3951L106.667 28.3715C106.314 28.174 105.833 28.0109 105.235 27.8873C104.641 27.7639 104.059 27.7017 103.506 27.7017ZM94.28 28.0187H91.1864V41.1701H94.28V28.0187ZM92.7648 22.4161C92.2557 22.4161 91.8116 22.5894 91.4467 22.9329C91.0803 23.2773 90.8945 23.711 90.8945 24.2228C90.8945 24.7266 91.0781 25.1524 91.441 25.4877C91.8016 25.822 92.247 25.9914 92.765 25.9914C93.2827 25.9914 93.7299 25.822 94.0947 25.4882C94.4619 25.1524 94.6482 24.7267 94.6482 24.2228C94.6482 23.7289 94.4669 23.2997 94.1099 22.9468C93.7531 22.5946 93.3004 22.4161 92.7648 22.4161ZM85.046 27.0484V41.1701H88.2032V22.8187H83.8335L78.2794 36.4496L72.8894 22.8187H68.3418V41.1699H71.3087V27.047H71.4106L77.1023 41.1701H79.3413L84.9442 27.0484H85.046Z" fill="#706D6E"/>
<path d="M43.0924 31.2396H28.5391V16.6862H43.0924V31.2396Z" fill="#F1511B"/>
<path d="M59.161 31.2396H44.6079V16.6862H59.161V31.2396Z" fill="#80CC28"/>
<path d="M43.092 47.3138H28.5391V32.7606H43.092V47.3138Z" fill="#00ADEF"/>
<path d="M59.161 47.3138H44.6079V32.7606H59.161V47.3138Z" fill="#FBBC09"/>
</g>
<defs>
<clipPath id="clip0_421_1782">
<rect width="143.461" height="30.6432" fill="white" transform="translate(28.5391 16.6784)"/>
</clipPath>
</defs>
</svg>
