<svg width="200" height="64" viewBox="0 0 200 64" fill="none" xmlns="http://www.w3.org/2000/svg">
<g opacity="0.4">
<g clip-path="url(#clip0_1833_15055)">
<path d="M162 30.7625V28.6218H159.314V25.2939L159.223 25.3214L156.7 26.0854L156.65 26.1003V28.6219H152.668V27.2172C152.668 26.5631 152.816 26.0625 153.107 25.7287C153.397 25.3989 153.81 25.2312 154.338 25.2312C154.717 25.2312 155.11 25.3196 155.505 25.494L155.604 25.5378V23.2834L155.558 23.2664C155.189 23.1353 154.687 23.0692 154.066 23.0692C153.282 23.0692 152.57 23.2379 151.95 23.5724C151.328 23.9072 150.84 24.3853 150.497 24.9931C150.156 25.6002 149.983 26.3014 149.983 27.0774V28.6218H148.113V30.7625H149.983V39.7808H152.668V30.7625H156.65V36.4935C156.65 38.8538 157.775 40.0498 159.994 40.0498C160.359 40.0498 160.742 40.0076 161.134 39.9248C161.533 39.8398 161.805 39.7549 161.965 39.6642L162 39.6435V37.483L161.891 37.5545C161.745 37.6506 161.564 37.7291 161.351 37.7875C161.137 37.847 160.959 37.8768 160.82 37.8768C160.301 37.8768 159.916 37.7382 159.678 37.4647C159.436 37.1887 159.314 36.706 159.314 36.0308V30.7625H162ZM142.116 37.8771C141.142 37.8771 140.373 37.5573 139.832 36.9274C139.287 36.2942 139.011 35.3916 139.011 34.2447C139.011 33.0614 139.287 32.1353 139.832 31.491C140.374 30.8509 141.135 30.526 142.094 30.526C143.025 30.526 143.767 30.8363 144.298 31.4487C144.831 32.0643 145.102 32.983 145.102 34.18C145.102 35.3918 144.847 36.3226 144.345 36.9453C143.846 37.5632 143.097 37.8771 142.116 37.8771ZM142.236 28.353C140.376 28.353 138.899 28.8922 137.846 29.9555C136.794 31.0191 136.261 32.4908 136.261 34.3303C136.261 36.0775 136.781 37.4828 137.809 38.5066C138.836 39.5308 140.234 40.0496 141.964 40.0496C143.766 40.0496 145.214 39.5029 146.266 38.4248C147.319 37.3479 147.852 35.89 147.852 34.0935C147.852 32.319 147.351 30.9032 146.364 29.8862C145.376 28.8687 143.987 28.353 142.236 28.353ZM131.931 28.353C130.667 28.353 129.62 28.6731 128.821 29.3044C128.017 29.9394 127.609 30.7723 127.609 31.7801C127.609 32.3039 127.697 32.7693 127.87 33.164C128.045 33.56 128.314 33.9086 128.673 34.2012C129.028 34.4915 129.577 34.7955 130.305 35.1048C130.916 35.3539 131.373 35.5645 131.662 35.7306C131.945 35.8933 132.146 36.0569 132.26 36.2162C132.37 36.3721 132.426 36.5854 132.426 36.8487C132.426 37.5984 131.859 37.9632 130.691 37.9632C130.259 37.9632 129.765 37.8737 129.224 37.6973C128.686 37.5236 128.179 37.2692 127.72 36.943L127.609 36.8639V39.4222L127.65 39.4411C128.03 39.6146 128.509 39.761 129.073 39.8762C129.637 39.9914 130.149 40.0501 130.594 40.0501C131.966 40.0501 133.071 39.7284 133.878 39.0934C134.689 38.454 135.101 37.6015 135.101 36.5588C135.101 35.8066 134.879 35.1616 134.443 34.6414C134.009 34.1254 133.257 33.6517 132.208 33.233C131.372 32.9009 130.836 32.6253 130.615 32.4137C130.402 32.2093 130.294 31.9202 130.294 31.5541C130.294 31.2296 130.428 30.9696 130.702 30.7591C130.978 30.5475 131.362 30.4399 131.844 30.4399C132.292 30.4399 132.749 30.5098 133.205 30.6469C133.66 30.7839 134.059 30.9675 134.393 31.192L134.502 31.2662V28.8394L134.46 28.8215C134.153 28.6909 133.747 28.5792 133.254 28.4885C132.763 28.3984 132.318 28.353 131.931 28.353ZM120.609 37.8771C119.635 37.8771 118.866 37.5573 118.325 36.9274C117.78 36.2942 117.504 35.3918 117.504 34.2447C117.504 33.0614 117.78 32.1353 118.325 31.491C118.867 30.8509 119.628 30.526 120.588 30.526C121.518 30.526 122.259 30.8363 122.79 31.4487C123.324 32.0643 123.595 32.983 123.595 34.18C123.595 35.3918 123.34 36.3226 122.838 36.9453C122.339 37.5632 121.59 37.8771 120.609 37.8771ZM120.729 28.353C118.869 28.353 117.392 28.8922 116.34 29.9555C115.287 31.0191 114.753 32.4908 114.753 34.3303C114.753 36.0782 115.275 37.4828 116.302 38.5066C117.329 39.5308 118.727 40.0496 120.457 40.0496C122.259 40.0496 123.707 39.5029 124.759 38.4248C125.811 37.3479 126.345 35.89 126.345 34.0935C126.345 32.319 125.844 30.9032 124.857 29.8862C123.869 28.8687 122.48 28.353 120.729 28.353ZM110.677 30.5543V28.6218H108.025V39.7806H110.677V34.0724C110.677 33.1018 110.9 32.3044 111.339 31.7021C111.772 31.107 112.349 30.8055 113.054 30.8055C113.293 30.8055 113.561 30.8444 113.852 30.9216C114.139 30.9982 114.347 31.0815 114.47 31.1691L114.582 31.249V28.6027L114.539 28.5845C114.292 28.4806 113.942 28.4282 113.5 28.4282C112.833 28.4282 112.237 28.6402 111.726 29.0575C111.278 29.4243 110.953 29.9272 110.706 30.5543H110.677ZM103.275 28.353C102.058 28.353 100.973 28.6112 100.05 29.1202C99.1245 29.6304 98.409 30.3588 97.9223 31.2851C97.4376 32.209 97.1916 33.2883 97.1916 34.492C97.1916 35.5463 97.4301 36.5138 97.9017 37.3666C98.3735 38.2207 99.0412 38.889 99.8865 39.3524C100.731 39.8153 101.706 40.05 102.786 40.05C104.047 40.05 105.123 39.8006 105.986 39.3087L106.021 39.289V36.8842L105.909 36.9647C105.518 37.2465 105.082 37.4714 104.612 37.6334C104.143 37.7953 103.715 37.8771 103.341 37.8771C102.3 37.8771 101.464 37.5549 100.858 36.9195C100.25 36.2833 99.9419 35.3899 99.9419 34.2658C99.9419 33.1345 100.263 32.2182 100.897 31.5421C101.528 30.868 102.365 30.526 103.384 30.526C104.256 30.526 105.106 30.8182 105.909 31.3952L106.021 31.4751V28.9413L105.985 28.9212C105.682 28.7537 105.27 28.6153 104.758 28.5104C104.248 28.4057 103.749 28.353 103.275 28.353ZM95.3648 28.6219H92.7124V39.7806H95.3648V28.6219ZM94.0657 23.8683C93.6292 23.8683 93.2484 24.0153 92.9356 24.3068C92.6215 24.599 92.4622 24.967 92.4622 25.4012C92.4622 25.8287 92.6196 26.1899 92.9307 26.4744C93.2399 26.7581 93.6218 26.9018 94.0659 26.9018C94.5098 26.9018 94.8932 26.7581 95.206 26.4749C95.5208 26.1899 95.6805 25.8288 95.6805 25.4012C95.6805 24.9822 95.5251 24.618 95.2189 24.3185C94.913 24.0197 94.5249 23.8683 94.0657 23.8683ZM87.4478 27.7986V39.7806H90.1547V24.2099H86.4082L81.6462 35.7753L77.025 24.2099H73.126V39.7804H75.6698V27.7974H75.7571L80.637 39.7806H82.5567L87.3605 27.7986H87.4478Z" fill="#132238"/>
<path d="M51.4777 31.3548H39V19.0067H51.4777V31.3548Z" fill="#132238"/>
<path d="M65.2548 31.3548H52.7773V19.0067H65.2548V31.3548Z" fill="#132238"/>
<path d="M51.4773 44.9934H39V32.6454H51.4773V44.9934Z" fill="#132238"/>
<path d="M65.2548 44.9934H52.7773V32.6454H65.2548V44.9934Z" fill="#132238"/>
</g>
</g>
<defs>
<clipPath id="clip0_1833_15055">
<rect width="123" height="26" fill="white" transform="translate(39 19)"/>
</clipPath>
</defs>
</svg>
