<svg width="20" height="20" viewBox="0 0 20 20" fill="none" xmlns="http://www.w3.org/2000/svg">
<g clip-path="url(#clip0_3141_2254)">
<path d="M7.20465 0.627847C4.16748 0.854308 1.58555 1.06257 1.46415 1.08696C1.12379 1.14813 0.814153 1.38078 0.668557 1.68699L0.541016 1.95642L0.553309 8.37784L0.571364 14.7993L0.765749 15.1972C0.875234 15.4175 1.61628 16.446 2.42417 17.5048C4.02189 19.5921 4.13713 19.7086 4.74449 19.7698C4.92082 19.788 6.24502 19.7268 7.6787 19.6413C9.11853 19.5495 11.4266 19.4086 12.8118 19.3293C18.7283 18.9673 18.4244 18.9979 18.7644 18.7041C19.1897 18.3491 19.1593 18.9305 19.1774 11.126C19.1897 4.50865 19.1835 4.07431 19.0863 3.87224C18.9711 3.64578 18.7644 3.48667 16.0672 1.57666C14.2632 0.303447 14.1357 0.236089 13.3274 0.223701C12.9935 0.211701 10.2357 0.395192 7.20465 0.627847ZM14.0323 1.46633C14.2874 1.58247 16.1525 2.89246 16.4256 3.14369C16.4986 3.21724 16.5228 3.27841 16.4863 3.31518C16.4014 3.38873 4.85935 4.0805 4.52552 4.03134C4.37378 4.00695 4.14904 3.91521 4.0215 3.82927C3.4929 3.46809 2.18099 2.38456 2.18099 2.30521C2.18099 2.09694 2.13835 2.09694 7.28378 1.72376C8.268 1.65641 9.88378 1.53408 10.868 1.45433C12.9997 1.28284 13.6378 1.28904 14.0323 1.46633ZM17.7014 4.81486C17.7863 4.90041 17.8593 5.06571 17.8835 5.22481C17.9016 5.37191 17.9139 8.11422 17.9016 11.3094C17.8835 16.7941 17.8774 17.137 17.774 17.2961C17.7133 17.3941 17.5919 17.4982 17.5005 17.5288C17.2458 17.6329 5.15132 18.3247 4.90238 18.2512C4.78713 18.2206 4.62886 18.1226 4.54396 18.0371L4.39798 17.878L4.37992 11.9648C4.36763 7.81459 4.37992 5.97813 4.42871 5.81283C4.46521 5.69051 4.55625 5.5434 4.63539 5.49463C4.74487 5.42108 5.46172 5.35991 7.92802 5.2132C9.65943 5.11526 12.3382 4.94996 13.8752 4.85821C17.5312 4.63137 17.5193 4.63137 17.7014 4.81486Z" fill="black"/>
<path d="M14.4506 6.8413C13.7944 6.88427 13.2113 6.94543 13.1444 6.98221C12.9439 7.08634 12.8225 7.25783 12.7983 7.45371C12.7803 7.65579 12.841 7.68017 13.4967 7.75992L13.7822 7.7967V10.4105C13.7822 11.9651 13.758 12.9937 13.7276 12.9631C13.6973 12.9263 12.8348 11.6043 11.808 10.0249C10.7815 8.43969 9.93095 7.13551 9.91866 7.12351C9.90637 7.11112 9.23831 7.14789 8.43657 7.20325C7.45235 7.27061 6.91184 7.33177 6.80235 7.39294C6.62603 7.48468 6.43164 7.80908 6.43164 8.02354C6.43164 8.15207 6.66252 8.21942 7.14848 8.21942H7.40356V15.7364L6.99059 15.8649C6.66867 15.9628 6.55918 16.024 6.50463 16.1463C6.40744 16.3546 6.41359 16.5443 6.51078 16.5443C6.54727 16.5443 7.23377 16.5013 8.02321 16.4525C9.58444 16.3608 9.76039 16.3178 9.92442 15.9934C9.97321 15.8955 10.0155 15.7914 10.0155 15.7608C10.0155 15.7364 9.80303 15.6628 9.54756 15.6017C9.28633 15.5405 9.0251 15.4793 8.97055 15.467C8.86721 15.4364 8.86107 15.2467 8.86107 12.6143V9.79226L10.7077 12.7123C12.6454 15.7728 12.8886 16.122 13.1863 16.2749C13.557 16.4707 14.4986 16.336 14.9723 16.024L15.1183 15.9323L15.1306 11.7576L15.1486 7.57681L15.4705 7.51565C15.8532 7.4421 16.0295 7.2648 16.0295 6.95859C16.0295 6.76272 16.0172 6.75033 15.8351 6.75652C15.7264 6.76155 15.1006 6.79833 14.4506 6.8413Z" fill="black"/>
</g>
<defs>
<clipPath id="clip0_3141_2254">
<rect width="20" height="20" fill="white"/>
</clipPath>
</defs>
</svg>
