<svg width="20" height="20" viewBox="0 0 20 20" fill="none" xmlns="http://www.w3.org/2000/svg">
<g clip-path="url(#clip0_3141_2270)">
<path fill-rule="evenodd" clip-rule="evenodd" d="M7.33289 0C6.22732 0.000815494 5.33256 0.896228 5.33338 1.99959C5.33256 3.10296 6.22813 3.99837 7.3337 3.99918H9.33403V2.00041C9.33484 0.897044 8.43927 0.00163099 7.33289 0C7.3337 0 7.3337 0 7.33289 0V0ZM7.33289 5.33333H2.00033C0.894755 5.33415 -0.000814892 6.22956 2.2331e-06 7.33293C-0.00163202 8.43629 0.893937 9.3317 1.99951 9.33333H7.33289C8.43846 9.33252 9.33403 8.4371 9.33321 7.33374C9.33403 6.22956 8.43846 5.33415 7.33289 5.33333Z" fill="#36C5F0"/>
<path fill-rule="evenodd" clip-rule="evenodd" d="M20.0003 7.33293C20.0011 6.22956 19.1055 5.33415 18 5.33333C16.8944 5.33415 15.9988 6.22956 15.9996 7.33293V9.33333H18C19.1055 9.33252 20.0011 8.4371 20.0003 7.33293ZM14.6669 7.33293V1.99959C14.6677 0.897044 13.7729 0.00163099 12.6673 0C11.5618 0.000815494 10.6662 0.896228 10.667 1.99959V7.33293C10.6654 8.43629 11.5609 9.3317 12.6665 9.33333C13.7721 9.33252 14.6677 8.4371 14.6669 7.33293Z" fill="#2EB67D"/>
<path fill-rule="evenodd" clip-rule="evenodd" d="M12.6663 20.0002C13.7719 19.9993 14.6675 19.1039 14.6667 18.0006C14.6675 16.8972 13.7719 16.0018 12.6663 16.001H10.666V18.0006C10.6652 19.1031 11.5608 19.9985 12.6663 20.0002ZM12.6663 14.666H17.9997C19.1053 14.6652 20.0009 13.7698 20.0001 12.6664C20.0017 11.5631 19.1061 10.6676 18.0005 10.666H12.6672C11.5616 10.6668 10.666 11.5622 10.6668 12.6656C10.666 13.7698 11.5608 14.6652 12.6663 14.666Z" fill="#ECB22E"/>
<path fill-rule="evenodd" clip-rule="evenodd" d="M5.58723e-07 12.6661C-0.000816571 13.7695 0.894758 14.6649 2.00033 14.6657C3.10591 14.6649 4.00149 13.7695 4.00067 12.6661V10.6665H2.00033C0.894758 10.6673 -0.000816571 11.5627 5.58723e-07 12.6661ZM5.33341 12.6661V17.9995C5.33177 19.1029 6.22735 19.9983 7.33293 19.9999C8.4385 19.9991 9.33408 19.1037 9.33326 18.0003V12.6677C9.33489 11.5644 8.43932 10.669 7.33374 10.6673C6.22735 10.6673 5.33259 11.5627 5.33341 12.6661C5.33341 12.6669 5.33341 12.6661 5.33341 12.6661Z" fill="#E01E5A"/>
</g>
<defs>
<clipPath id="clip0_3141_2270">
<rect width="20" height="20" fill="white"/>
</clipPath>
</defs>
</svg>
