<svg width="200" height="64" viewBox="0 0 200 64" fill="none" xmlns="http://www.w3.org/2000/svg">
<g clip-path="url(#clip0_1833_15063)">
<path d="M61.3459 16C52.3185 16 45 23.1634 45 31.9997C45 40.837 52.3185 48 61.3459 48C70.3737 48 77.6918 40.837 77.6918 31.9997C77.6918 23.164 70.3741 16.0008 61.3457 16.0008L61.3459 16ZM68.8421 39.0762C68.5485 39.5475 67.9211 39.6952 67.4412 39.408C63.6027 37.1117 58.7713 36.593 53.0815 37.8652C52.5332 37.9883 51.9867 37.6518 51.8618 37.1153C51.7362 36.5786 52.0784 36.0437 52.6281 35.9214C58.8547 34.528 64.1957 35.1277 68.5042 37.7047C68.9843 37.9933 69.1366 38.6066 68.8419 39.0766L68.8421 39.0762ZM70.8428 34.7202C70.4731 35.3073 69.6888 35.4915 69.0897 35.131C64.697 32.4879 57.9986 31.7223 52.8016 33.2664C52.1276 33.4657 51.4157 33.0939 51.2112 32.4353C51.0082 31.7756 51.3882 31.0801 52.061 30.8795C57.9974 29.1164 65.3772 29.9705 70.4229 33.0055C71.0221 33.3666 71.2115 34.1346 70.8426 34.7204L70.8428 34.7202ZM71.0145 30.1837C65.7455 27.1208 57.0544 26.8392 52.0245 28.3335C51.2168 28.5732 50.3627 28.1269 50.1179 27.3363C49.8731 26.5453 50.3287 25.7098 51.137 25.4695C56.911 23.7538 66.5095 24.0853 72.5749 27.6097C73.3014 28.0318 73.5397 28.9502 73.1091 29.6604C72.6797 30.3715 71.7389 30.6059 71.0147 30.1837H71.0145ZM89.4718 30.7706C86.6496 30.1119 86.1471 29.6495 86.1471 28.6779C86.1471 27.7601 87.03 27.1424 88.3428 27.1424C89.6155 27.1424 90.8774 27.6115 92.2004 28.5771C92.2404 28.6063 92.2906 28.6179 92.34 28.6103C92.3894 28.6031 92.4331 28.5765 92.462 28.5366L93.84 26.6351C93.8966 26.5568 93.8812 26.4489 93.8049 26.3891C92.2303 25.1523 90.4572 24.5511 88.3846 24.5511C85.3373 24.5511 83.2087 26.3411 83.2087 28.9023C83.2087 31.6487 85.0449 32.6212 88.2179 33.3719C90.9186 33.9808 91.3744 34.4909 91.3744 35.4029C91.3744 36.4134 90.4527 37.0416 88.9694 37.0416C87.322 37.0416 85.9783 36.4984 84.4751 35.2242C84.4379 35.1927 84.3867 35.1784 84.3395 35.1811C84.2897 35.1851 84.2442 35.2076 84.2126 35.2449L82.6675 37.0448C82.6027 37.1195 82.6109 37.2311 82.6858 37.2957C84.4347 38.824 86.5857 39.6312 88.907 39.6312C92.1907 39.6312 94.3126 37.875 94.3126 35.1568C94.3185 32.8622 92.915 31.5916 89.4777 30.7731L89.4718 30.7706ZM101.742 28.0461C100.318 28.0461 99.1508 28.5948 98.1881 29.7192V28.4536C98.1881 28.3537 98.1053 28.2723 98.0035 28.2723H95.4763C95.3742 28.2723 95.2917 28.3537 95.2917 28.4536V42.516C95.2917 42.6159 95.3742 42.6973 95.4763 42.6973H98.0035C98.1053 42.6973 98.1881 42.6159 98.1881 42.516V38.0771C99.151 39.1348 100.319 39.6516 101.742 39.6516C104.386 39.6516 107.063 37.6589 107.063 33.8496C107.067 30.0392 104.389 28.0459 101.744 28.0459L101.742 28.0461ZM104.125 33.8496C104.125 35.7894 102.904 37.143 101.156 37.143C99.4282 37.143 98.1247 35.7279 98.1247 33.8496C98.1247 31.9714 99.4282 30.5561 101.156 30.5561C102.876 30.5559 104.125 31.9407 104.125 33.8494L104.125 33.8496ZM113.925 28.0461C110.52 28.0461 107.851 30.6132 107.851 33.891C107.851 37.1331 110.501 39.6732 113.884 39.6732C117.302 39.6732 119.978 37.1148 119.978 33.8495C119.978 30.5956 117.32 28.0465 113.925 28.0465L113.925 28.0461ZM113.925 37.1623C112.114 37.1623 110.748 35.7376 110.748 33.8486C110.748 31.9516 112.067 30.575 113.884 30.575C115.707 30.575 117.082 31.9997 117.082 33.89C117.082 35.7867 115.755 37.1623 113.926 37.1623H113.925ZM127.251 28.2723H124.47V25.4894C124.47 25.3896 124.388 25.3082 124.286 25.3082H121.759C121.657 25.3082 121.574 25.3896 121.574 25.4894V28.2723H120.359C120.257 28.2723 120.175 28.3537 120.175 28.4536V30.5796C120.175 30.6793 120.257 30.7609 120.359 30.7609H121.574V36.2617C121.574 38.4847 122.704 39.6117 124.933 39.6117C125.84 39.6117 126.592 39.4285 127.301 39.0351C127.358 39.0036 127.394 38.9428 127.394 38.8782V36.8538C127.394 36.7913 127.361 36.7323 127.306 36.6996C127.251 36.6658 127.183 36.6641 127.126 36.6914C126.639 36.9312 126.169 37.0418 125.643 37.0418C124.832 37.0418 124.47 36.6814 124.47 35.8738V30.7618H127.251C127.353 30.7618 127.435 30.6805 127.435 30.5805V28.4548C127.439 28.3549 127.357 28.2735 127.254 28.2735L127.251 28.2723ZM136.94 28.2832V27.9414C136.94 26.9359 137.334 26.4874 138.218 26.4874C138.745 26.4874 139.168 26.5899 139.642 26.7446C139.7 26.7626 139.761 26.7536 139.808 26.7194C139.857 26.6852 139.885 26.6304 139.885 26.5723V24.4878C139.885 24.4081 139.832 24.3376 139.754 24.3141C139.253 24.1683 138.613 24.0188 137.654 24.0188C135.319 24.0188 134.086 25.3054 134.086 27.7381V28.2616H132.871C132.77 28.2616 132.686 28.343 132.686 28.4427V30.5796C132.686 30.6793 132.77 30.7609 132.871 30.7609H134.086V39.2456C134.086 39.3455 134.168 39.4269 134.27 39.4269H136.797C136.899 39.4269 136.982 39.3455 136.982 39.2456V30.7615H139.342L142.956 39.2441C142.546 40.1354 142.142 40.3127 141.591 40.3127C141.146 40.3127 140.677 40.1826 140.198 39.9258C140.153 39.9015 140.099 39.8975 140.051 39.9123C140.003 39.9289 139.962 39.964 139.942 40.0099L139.085 41.8492C139.044 41.9361 139.079 42.0382 139.165 42.0833C140.059 42.5573 140.866 42.7596 141.864 42.7596C143.73 42.7596 144.761 41.9088 145.67 39.6199L150.054 28.5308C150.076 28.475 150.07 28.412 150.035 28.3625C150 28.3134 149.944 28.2838 149.883 28.2838H147.252C147.173 28.2838 147.103 28.3329 147.077 28.4053L144.382 35.9403L141.43 28.4003C141.403 28.3302 141.334 28.2838 141.258 28.2838H136.94L136.94 28.2832ZM131.323 28.2723H128.796C128.694 28.2723 128.61 28.3537 128.61 28.4536V39.2456C128.61 39.3456 128.694 39.4269 128.796 39.4269H131.323C131.425 39.4269 131.508 39.3456 131.508 39.2456V28.4544C131.508 28.4306 131.503 28.4069 131.494 28.3849C131.485 28.3629 131.471 28.3429 131.454 28.326C131.437 28.3092 131.416 28.2958 131.394 28.2867C131.371 28.2776 131.347 28.273 131.323 28.2731L131.323 28.2723ZM130.074 23.3585C129.072 23.3585 128.26 24.1517 128.26 25.1317C128.26 26.1122 129.073 26.9065 130.074 26.9065C131.074 26.9065 131.886 26.1122 131.886 25.1317C131.886 24.1519 131.074 23.3585 130.075 23.3585H130.074ZM152.212 31.7422C151.212 31.7422 150.434 30.9559 150.434 30.0012C150.434 29.0465 151.222 28.2513 152.222 28.2513C153.222 28.2513 154 29.0373 154 29.9913C154 30.946 153.211 31.7422 152.212 31.7422H152.212ZM152.222 28.4244C151.311 28.4244 150.622 29.1332 150.622 30.0012C150.622 30.8688 151.306 31.5681 152.213 31.5681C153.124 31.5681 153.814 30.8599 153.814 29.9913C153.814 29.1237 153.128 28.4244 152.223 28.4244H152.222ZM152.616 30.1703L153.119 30.8597H152.695L152.242 30.2273H151.853V30.8597H151.498V29.0324H152.33C152.764 29.0324 153.049 29.2496 153.049 29.6153C153.051 29.9149 152.874 30.0979 152.618 30.1703H152.616V30.1703ZM152.316 29.3459H151.853V29.9239H152.316C152.547 29.9239 152.685 29.8132 152.685 29.6346C152.685 29.4466 152.546 29.3459 152.316 29.3459H152.316V29.3459Z" fill="#2EBD59"/>
</g>
<defs>
<clipPath id="clip0_1833_15063">
<rect width="109" height="32" fill="white" transform="translate(45 16)"/>
</clipPath>
</defs>
</svg>
