<svg width="200" height="64" viewBox="0 0 200 64" fill="none" xmlns="http://www.w3.org/2000/svg">
<g opacity="0.4">
<g clip-path="url(#clip0_1833_15071)">
<path d="M152.73 37.3807C150.924 37.3807 149.46 38.8506 149.46 40.6634C149.46 42.4745 150.924 43.9446 152.73 43.9446C154.536 43.9446 156 42.4745 156 40.6634C156 38.8506 154.536 37.3807 152.73 37.3807ZM134.824 39.2481L134.829 20.0006H132.854C132.854 20.0006 129.572 21.2172 127.209 21.4759V25.1117H128.701C129.181 25.1117 129.382 25.3216 129.389 25.781V39.2483C129.389 39.7227 129.117 39.9829 128.677 40.0123C128.3 40.0381 127.455 40.0939 127.455 40.0939V43.7302H136.759V40.0939C136.759 40.0939 135.913 40.038 135.537 40.0123C135.096 39.9827 134.824 39.7226 134.824 39.2481ZM153.63 29.695C153.449 25.639 148.09 25.4523 145.289 28.1923L144.777 26.6218H138.301V30.3389L139.659 30.3369C140.14 30.3369 140.318 30.5463 140.325 31.0055V39.2483C140.325 39.7227 140.052 39.9829 139.612 40.0123C139.235 40.0381 138.476 40.0932 138.476 40.0932V43.7302H147.595V40.0932C147.595 40.0932 146.841 40.0378 146.465 40.0123C146.024 39.9829 145.751 39.7231 145.751 39.2483L145.749 33.6596C145.749 32.6121 145.983 30.8641 147.786 30.4169C148.008 32.1649 149.656 32.6871 150.46 32.6871C152.49 32.6867 153.63 31.1291 153.63 29.695ZM119.272 26.3942C117.891 26.4563 116.434 26.9979 115.376 27.9405V20.0006H113.421C113.421 20.0006 110.224 21.1646 107.75 21.4759L107.669 25.1117L109.233 25.114C109.713 25.114 109.92 25.3236 109.927 25.7835V43.7321L114.397 43.7277L115.036 42.2547C115.172 42.3332 117.224 44.3093 120.499 43.9141C124.622 43.4159 126.788 40.0692 126.788 34.9915C126.788 32.3274 125.991 26.0932 119.272 26.3942ZM118.445 39.762C117.685 39.8192 116.279 39.6885 115.376 38.0624V35.6802L115.376 35.6787H115.376V32.9243C115.376 31.7335 116.449 30.6882 118.109 30.6251C119.791 30.5612 121.28 31.7378 121.28 35.061C121.28 39.5443 119.361 39.6921 118.445 39.762ZM106.399 39.2626L106.4 34.0729C106.4 32.2236 106.378 30.312 105.184 28.7517C104.09 27.3239 102.275 26.2768 99.5194 26.4127C97.6894 26.5031 95.7374 27.3748 94.6597 28.8677L94.4899 29.0875L94.3865 28.9602C93.2787 27.3203 91.5099 26.277 88.7547 26.4127C86.9241 26.5031 84.9721 27.3748 83.8944 28.8677L83.7326 26.6388H76.9799V30.3566L78.5339 30.3801C79.0146 30.3801 79.2174 30.5897 79.224 31.0495L79.2242 38.3249V39.2625C79.2242 39.7371 78.9518 39.9974 78.5119 40.0272C78.1349 40.0527 77.3716 40.1079 77.3716 40.1079V43.744L86.5025 43.7474V40.1081C86.5025 40.1081 85.7831 40.0559 85.3619 40.0274C84.9216 39.9965 84.6501 39.7374 84.6501 39.2626C84.6501 39.2626 84.6575 34.6189 84.6575 33.6888C84.6575 32.7602 85.4072 30.8542 87.7875 30.8542C89.7078 30.8542 90.1012 32.0538 90.1012 33.4498C90.1012 34.8453 90.1033 39.2634 90.1033 39.2634C90.1033 39.738 89.8315 39.9976 89.3916 40.0274C89.0146 40.0534 88.2511 40.1093 88.2511 40.1093V43.7442H97.3724V40.1081C97.3724 40.1081 96.6533 40.0559 96.2317 40.0274C95.7916 39.9965 95.5238 39.7374 95.5238 39.2626H95.5102C95.5102 39.2626 95.5181 34.6189 95.5181 33.6888C95.5181 32.7602 96.1864 30.8542 98.5673 30.8542C100.487 30.8542 100.968 32.0538 100.968 33.4498V38.3249L100.967 39.263C100.967 39.7376 100.694 39.9974 100.255 40.0268C99.8776 40.053 99.1143 40.1088 99.1143 40.1088V43.7438H108.248V40.1081C108.248 40.1081 107.528 40.0559 107.107 40.0274C106.667 39.9965 106.399 39.7373 106.399 39.2626ZM74.0145 39.2982V26.6397H66.426V30.3565L67.888 30.3568C68.3694 30.3568 68.5712 30.5666 68.5777 31.0262L68.5702 36.8006C68.5702 37.3665 68.1722 39.4923 65.4074 39.5456C63.5235 39.5827 63.1273 38.4438 63.1273 36.9502V26.6397H57.5394V37.2448C57.5394 39.9282 58.735 44.1497 64.3134 43.9954C66.1451 43.9437 68.2431 42.9993 69.3334 41.6149L69.379 43.7476H75.6059V40.1115C75.6059 40.1115 75.1023 40.0711 74.7252 40.0455C74.2849 40.0159 74.0145 39.7735 74.0145 39.2982ZM53.3283 39.7197C51.4741 39.7685 51.1155 38.4126 51.0996 37.4282V30.5978H55.4207V26.6393H51.1169V20.7558H47.7238C47.6682 20.7558 47.5709 20.8051 47.5573 20.9298C47.3582 22.7414 46.5126 25.9219 43 27.1923V30.5978H45.6739V37.7877C45.6739 40.3872 47.2555 44.0802 52.3001 43.9932C54.0025 43.9645 55.8935 43.2489 56.3121 42.6321L55.1982 39.3181C54.7669 39.5235 53.944 39.703 53.3283 39.7197Z" fill="#132238"/>
</g>
</g>
<defs>
<clipPath id="clip0_1833_15071">
<rect width="113" height="24" fill="white" transform="translate(43 20)"/>
</clipPath>
</defs>
</svg>
