<svg width="200" height="64" viewBox="0 0 200 64" fill="none" xmlns="http://www.w3.org/2000/svg">
<g clip-path="url(#clip0_421_1784)">
<path d="M163.224 38.2774C161.064 38.2774 159.314 39.9923 159.314 42.1072C159.314 44.2202 161.064 45.9353 163.224 45.9353C165.385 45.9353 167.135 44.2202 167.135 42.1072C167.135 39.9923 165.385 38.2774 163.224 38.2774ZM141.811 40.4561L141.817 18.0006H139.455C139.455 18.0006 135.53 19.42 132.704 19.7218V23.9635H134.489C135.062 23.9635 135.303 24.2085 135.312 24.7444V40.4563C135.312 41.0098 134.986 41.3133 134.46 41.3476C134.009 41.3777 132.999 41.4428 132.999 41.4428V45.6851H144.125V41.4428C144.125 41.4428 143.113 41.3775 142.664 41.3476C142.136 41.3131 141.811 41.0096 141.811 40.4561ZM164.301 29.3108C164.084 24.5787 157.675 24.361 154.326 27.5576L153.714 25.7253H145.969V30.062L147.593 30.0596C148.169 30.0596 148.381 30.304 148.389 30.8397V40.4563C148.389 41.0098 148.063 41.3133 147.537 41.3476C147.086 41.3777 146.178 41.442 146.178 41.442V45.6851H157.084V41.442C157.084 41.442 156.182 41.3773 155.732 41.3476C155.205 41.3133 154.878 41.0102 154.878 40.4563L154.876 33.9361C154.876 32.714 155.156 30.6747 157.312 30.1529C157.578 32.1923 159.548 32.8015 160.51 32.8015C162.937 32.8011 164.301 30.9838 164.301 29.3108ZM123.212 25.4598C121.561 25.5322 119.818 26.1642 118.553 27.2639V18.0006H116.215C116.215 18.0006 112.393 19.3587 109.433 19.7218L109.337 23.9635L111.207 23.9662C111.782 23.9662 112.029 24.2108 112.037 24.7473V45.6874L117.382 45.6822L118.147 43.9637C118.31 44.0553 120.763 46.3608 124.68 45.8997C129.611 45.3184 132.201 41.4139 132.201 35.4899C132.201 32.3818 131.248 25.1086 123.212 25.4598ZM122.223 41.0556C121.315 41.1223 119.634 40.9698 118.553 39.0727V36.2934L118.554 36.2918H118.553V33.0782C118.553 31.689 119.837 30.4694 121.822 30.3958C123.833 30.3213 125.614 31.694 125.614 35.5711C125.614 40.8016 123.32 40.974 122.223 41.0556ZM107.819 40.473L107.819 34.4183C107.819 32.2607 107.793 30.0306 106.365 28.2102C105.056 26.5445 102.886 25.3228 99.5908 25.4814C97.4023 25.5868 95.0679 26.6039 93.7791 28.3456L93.576 28.602L93.4524 28.4535C92.1276 26.5403 90.0123 25.323 86.7174 25.4814C84.5282 25.5868 82.1939 26.6039 80.9051 28.3456L80.7116 25.7452H72.6361V30.0827L74.4945 30.1101C75.0694 30.1101 75.3118 30.3546 75.3198 30.891L75.32 39.379V40.4728C75.32 41.0265 74.9943 41.3302 74.4682 41.365C74.0174 41.3947 73.1045 41.4591 73.1045 41.4591V45.7012L84.0241 45.7052V41.4593C84.0241 41.4593 83.1637 41.3984 82.66 41.3652C82.1334 41.3292 81.8088 41.0269 81.8088 40.473C81.8088 40.473 81.8176 35.0553 81.8176 33.9702C81.8176 32.8868 82.7142 30.6632 85.5608 30.6632C87.8572 30.6632 88.3277 32.0626 88.3277 33.6914C88.3277 35.3195 88.3302 40.4738 88.3302 40.4738C88.3302 41.0276 88.0051 41.3305 87.479 41.3652C87.0282 41.3955 86.1151 41.4608 86.1151 41.4608V45.7014H97.0232V41.4593C97.0232 41.4593 96.1632 41.3984 95.6591 41.3652C95.1328 41.3292 94.8125 41.0269 94.8125 40.473H94.7962C94.7962 40.473 94.8056 35.0553 94.8056 33.9702C94.8056 32.8868 95.6049 30.6632 98.4522 30.6632C100.748 30.6632 101.323 32.0626 101.323 33.6914V39.379L101.322 40.4734C101.322 41.0271 100.996 41.3302 100.47 41.3646C100.019 41.3951 99.1063 41.4602 99.1063 41.4602V45.701H110.029V41.4593C110.029 41.4593 109.168 41.3984 108.665 41.3652C108.138 41.3292 107.819 41.0267 107.819 40.473ZM69.0898 40.5144V25.7462H60.0148V30.0825L61.7632 30.0829C62.3389 30.0829 62.5803 30.3276 62.588 30.8638L62.579 37.6006C62.579 38.2608 62.1031 40.741 58.7967 40.8031C56.5438 40.8464 56.0699 39.5176 56.0699 37.7751V25.7462H49.3875V38.1188C49.3875 41.2495 50.8172 46.1746 57.4884 45.9945C59.6788 45.9343 62.1878 44.8325 63.4917 43.2173L63.5463 45.7054H70.993V41.4633C70.993 41.4633 70.3907 41.4162 69.9397 41.3863C69.4132 41.3518 69.0898 41.069 69.0898 40.5144ZM44.3515 41.0062C42.1341 41.0631 41.7053 39.4812 41.6862 38.3328V30.364H46.8538V25.7458H41.7069V18.8817H37.6491C37.5826 18.8817 37.4663 18.9392 37.45 19.0846C37.2119 21.1983 36.2007 24.9088 32 26.3909V30.364H35.1976V38.7522C35.1976 41.785 37.0891 46.0934 43.1219 45.992C45.1577 45.9585 47.4192 45.1237 47.9198 44.404L46.5877 40.5376C46.0718 40.7774 45.0878 40.9868 44.3515 41.0062Z" fill="#1D3765"/>
</g>
<defs>
<clipPath id="clip0_421_1784">
<rect width="135.135" height="28" fill="white" transform="translate(32 18)"/>
</clipPath>
</defs>
</svg>
