<svg width="21" height="20" viewBox="0 0 21 20" fill="none" xmlns="http://www.w3.org/2000/svg">
<path d="M6.30577 18.1789C13.8725 18.1789 18.0104 11.898 18.0104 6.45146C18.0104 6.27309 18.0068 6.09553 17.9988 5.91871C18.8039 5.33498 19.4988 4.61224 20.0508 3.78436C19.3137 4.11269 18.5205 4.33368 17.6884 4.43332C18.5377 3.92306 19.1897 3.11581 19.4974 2.15357C18.6898 2.63354 17.8064 2.9719 16.8852 3.15405C16.1345 2.35288 15.0658 1.85181 13.8824 1.85181C11.6106 1.85181 9.76836 3.69766 9.76836 5.97296C9.76836 6.29644 9.80451 6.61098 9.87509 6.91278C6.45607 6.74041 3.42432 5.10028 1.39532 2.60636C1.02988 3.23538 0.837664 3.95026 0.838302 4.67802C0.838302 6.10802 1.56453 7.37039 2.66895 8.10894C2.01567 8.08895 1.37674 7.91215 0.805862 7.59342C0.805251 7.61072 0.805251 7.62758 0.805251 7.64607C0.805251 9.64217 2.22323 11.3088 4.10556 11.6864C3.75203 11.7829 3.38723 11.8317 3.02082 11.8315C2.75621 11.8315 2.49832 11.8054 2.24768 11.7572C2.77141 13.3949 4.29005 14.5866 6.09059 14.6199C4.68259 15.7256 2.90895 16.3842 0.981266 16.3842C0.653341 16.3845 0.325685 16.3654 0 16.3271C1.82063 17.4963 3.98244 18.1786 6.30597 18.1786" fill="#1DA1F2"/>
</svg>
