<svg width="24" height="24" viewBox="0 0 24 24" fill="none" xmlns="http://www.w3.org/2000/svg">
<path opacity="0.2" d="M11.9997 3C10.1786 2.99947 8.40018 3.55141 6.89936 4.5829C5.39855 5.6144 4.24597 7.07692 3.59386 8.77726C2.94176 10.4776 2.82082 12.3358 3.24702 14.1063C3.67322 15.8768 4.62651 17.4764 5.98095 18.6937C6.54532 17.5824 7.4064 16.649 8.46875 15.997C9.53111 15.345 10.7532 14.9999 11.9997 15C11.258 15 10.533 14.7801 9.91631 14.368C9.29963 13.956 8.81898 13.3703 8.53515 12.6851C8.25132 11.9998 8.17706 11.2458 8.32176 10.5184C8.46645 9.79098 8.8236 9.1228 9.34805 8.59835C9.8725 8.0739 10.5407 7.71675 11.2681 7.57205C11.9955 7.42736 12.7495 7.50162 13.4348 7.78545C14.12 8.06928 14.7057 8.54993 15.1177 9.16661C15.5298 9.7833 15.7497 10.5083 15.7497 11.25C15.7497 12.2446 15.3546 13.1984 14.6514 13.9017C13.9481 14.6049 12.9943 15 11.9997 15C13.2462 14.9999 14.4683 15.345 15.5306 15.997C16.593 16.649 17.4541 17.5824 18.0185 18.6937C19.3729 17.4764 20.3262 15.8768 20.7524 14.1063C21.1786 12.3358 21.0576 10.4776 20.4055 8.77726C19.7534 7.07692 18.6009 5.6144 17.1 4.5829C15.5992 3.55141 13.8208 2.99947 11.9997 3Z" fill="#1777E5"/>
<path d="M12 21C16.9706 21 21 16.9706 21 12C21 7.02944 16.9706 3 12 3C7.02944 3 3 7.02944 3 12C3 16.9706 7.02944 21 12 21Z" stroke="#1777E5" stroke-width="1.5" stroke-linecap="round" stroke-linejoin="round"/>
<path d="M12 15C14.0711 15 15.75 13.3211 15.75 11.25C15.75 9.17893 14.0711 7.5 12 7.5C9.92893 7.5 8.25 9.17893 8.25 11.25C8.25 13.3211 9.92893 15 12 15Z" stroke="#1777E5" stroke-width="1.5" stroke-linecap="round" stroke-linejoin="round"/>
<path d="M5.98145 18.6938C6.54574 17.5824 7.40678 16.6488 8.46914 15.9968C9.5315 15.3447 10.7537 14.9995 12.0002 14.9995C13.2467 14.9995 14.4689 15.3447 15.5312 15.9968C16.5936 16.6488 17.4547 17.5824 18.0189 18.6938" stroke="#1777E5" stroke-width="1.5" stroke-linecap="round" stroke-linejoin="round"/>
</svg>
